<svg width="491" height="449" viewBox="0 0 491 449" fill="none" xmlns="http://www.w3.org/2000/svg">
<path d="M472.306 195.525L245.192 422.661L18.077 195.525C13.84 191.432 7.087 191.55 2.994 195.787C-0.998 199.921 -0.998 206.474 2.994 210.607L237.661 445.274C241.826 449.438 248.578 449.438 252.744 445.274L487.41 210.608C491.503 206.371 491.385 199.618 487.148 195.525C483.014 191.532 476.461 191.532 472.327 195.525H472.306Z" fill="#607D8B"/>
<path d="M472.306 3.52491L245.192 230.661L18.077 3.52491C13.84 -0.568088 7.087 -0.450087 2.994 3.78691C-0.998 7.92091 -0.998 14.4739 2.994 18.6079L237.661 253.275C241.826 257.439 248.578 257.439 252.744 253.275L487.41 18.6079C491.647 14.5149 491.764 7.76291 487.672 3.52491C483.58 -0.713088 476.827 -0.829087 472.589 3.26291C472.5 3.34891 472.413 3.43591 472.327 3.52491H472.306Z" fill="#607D8B"/>
</svg>
