<svg width="338" height="375" viewBox="0 0 338 375" fill="none" xmlns="http://www.w3.org/2000/svg">
<path d="M15.3361 43.76C16.1041 48.416 19.4641 50.864 24.1201 50.864C31.4161 50.864 33.6721 45.248 33.6721 40.688V16.016H30.2161V39.248C30.2161 43.424 29.2561 47.696 24.2161 47.696C21.1921 47.696 19.4641 45.872 18.8401 43.04L15.3361 43.76ZM64.0923 36.224C58.7163 36.224 50.1243 36.704 50.1243 44C50.1243 48.368 53.8683 50.576 57.8523 50.576C61.4523 50.576 63.9483 49.328 65.7723 46.352H65.8683C65.8683 47.552 65.9643 48.896 66.1563 50H69.2283C69.0363 48.8 68.8443 46.688 68.8443 44.96V34.928C68.8443 29.456 65.0523 26.96 60.6363 26.96C56.4123 26.96 53.1963 28.112 51.1323 30.224L53.0523 32.48C54.9723 30.752 57.2763 29.84 59.9163 29.84C63.8043 29.84 65.6763 31.76 65.6763 35.648V36.224H64.0923ZM65.6763 38.816V40.448C65.6763 44.432 63.4683 47.696 58.8603 47.696C56.3163 47.696 53.5803 46.544 53.5803 43.568C53.5803 39.056 60.8283 38.816 64.0443 38.816H65.6763ZM105.175 27.536H101.575L94.4229 46.448H94.3269L87.1749 27.536H83.3829L92.5029 50H96.0549L105.175 27.536ZM132.139 36.224C126.763 36.224 118.171 36.704 118.171 44C118.171 48.368 121.915 50.576 125.899 50.576C129.499 50.576 131.995 49.328 133.819 46.352H133.915C133.915 47.552 134.011 48.896 134.203 50H137.275C137.083 48.8 136.891 46.688 136.891 44.96V34.928C136.891 29.456 133.099 26.96 128.683 26.96C124.459 26.96 121.243 28.112 119.179 30.224L121.099 32.48C123.019 30.752 125.323 29.84 127.963 29.84C131.851 29.84 133.723 31.76 133.723 35.648V36.224H132.139ZM133.723 38.816V40.448C133.723 44.432 131.515 47.696 126.907 47.696C124.363 47.696 121.627 46.544 121.627 43.568C121.627 39.056 128.875 38.816 132.091 38.816H133.723ZM174.47 19.28C171.782 16.208 168.71 15.152 164.87 15.152C159.35 15.152 153.878 18.224 153.878 24.8C153.878 37.232 171.302 31.904 171.302 41.504C171.302 45.488 167.414 47.696 164.006 47.696C160.454 47.696 157.718 46.064 156.278 43.568L153.158 45.824C155.75 49.376 159.734 50.864 163.862 50.864C169.238 50.864 175.046 47.216 175.046 41.024C175.046 28.784 157.622 33.632 157.622 24.464C157.622 20.192 161.318 18.32 164.87 18.32C167.75 18.32 169.958 19.424 171.446 21.632L174.47 19.28ZM209.846 30.848C207.638 28.256 204.662 27.008 201.638 26.96C194.294 26.864 189.734 32 189.734 38.768C189.734 45.536 194.294 50.672 201.638 50.576C204.662 50.528 207.638 49.28 209.846 46.688L207.254 44.72C206.198 46.352 204.134 47.696 201.638 47.696C196.406 47.792 193.19 43.904 193.19 38.768C193.19 33.632 196.406 29.744 201.638 29.84C204.134 29.84 206.198 31.184 207.254 32.816L209.846 30.848ZM224.378 50H227.546V37.328C227.546 34.304 229.706 30.128 234.506 30.128C235.37 30.128 235.946 30.224 236.33 30.368L236.954 27.248C236.282 27.056 235.514 26.96 234.602 26.96C230.666 26.96 228.314 29.312 227.402 31.712H227.306V27.536H224.186C224.282 30.8 224.378 32.528 224.378 34.544V50ZM253.867 27.536H250.699V50H253.867V27.536ZM254.587 18.896C254.587 17.552 253.435 16.592 252.283 16.592C251.131 16.592 249.979 17.552 249.979 18.896C249.979 20.24 251.131 21.2 252.283 21.2C253.435 21.2 254.587 20.24 254.587 18.896ZM271.511 63.824H274.679V46.256H274.775C276.839 49.28 280.535 50.576 283.511 50.576C290.519 50.576 295.463 45.536 295.463 38.768C295.463 32 290.519 26.96 283.511 26.96C280.535 26.96 276.839 28.256 274.775 31.28H274.679V27.536H271.511V63.824ZM292.007 38.768C292.007 43.808 288.743 47.696 283.511 47.696C278.327 47.696 274.535 43.808 274.535 38.768C274.535 33.728 278.327 29.84 283.511 29.84C288.743 29.84 292.007 33.728 292.007 38.768ZM322.47 27.536L315.99 27.536V21.2H312.822V27.536H308.07V30.416H312.822V44.576C312.822 49.52 315.99 50.576 318.39 50.576C319.974 50.576 321.51 50.288 322.662 49.76L322.518 46.832C321.558 47.36 320.358 47.696 319.254 47.696C317.286 47.696 315.99 47.024 315.99 43.664V30.416L322.47 30.416V27.536Z" fill="#5689A6"/>
<path d="M27.5196 319.184H38.8956V316.016H12.6876V319.184H24.0636V350H27.5196V319.184ZM48.9864 327.536H45.0024L54.2184 350.288L52.5864 354.608C51.6264 357.152 50.4744 358.64 48.2664 358.64C47.4024 358.64 46.5864 358.496 45.8664 358.112L45.5304 361.184C46.4904 361.472 47.4984 361.52 48.4584 361.52C52.3464 361.52 54.1704 359.312 55.5144 355.856L66.7464 327.536H62.9064L56.0424 346.112L48.9864 327.536ZM80.8466 363.824H84.0146V346.256H84.1106C86.1746 349.28 89.8706 350.576 92.8466 350.576C99.8546 350.576 104.799 345.536 104.799 338.768C104.799 332 99.8546 326.96 92.8466 326.96C89.8706 326.96 86.1746 328.256 84.1106 331.28H84.0146V327.536H80.8466V363.824ZM101.343 338.768C101.343 343.808 98.0786 347.696 92.8466 347.696C87.6626 347.696 83.8706 343.808 83.8706 338.768C83.8706 333.728 87.6626 329.84 92.8466 329.84C98.0786 329.84 101.343 333.728 101.343 338.768ZM141.118 339.632V338.192C141.118 332.048 137.182 327.008 130.366 326.96C123.982 326.96 119.038 332 119.038 338.768C119.038 345.536 123.982 350.576 130.654 350.576C134.35 350.576 137.662 349.184 140.302 345.824L137.854 343.808C136.606 345.824 134.014 347.696 130.654 347.696C126.19 347.696 122.782 344.144 122.398 339.632H141.118ZM122.494 337.04C122.494 333.344 126.238 329.84 130.366 329.84C134.926 329.84 137.662 332.768 137.662 337.04L122.494 337.04ZM177.118 319.28C174.43 316.208 171.358 315.152 167.518 315.152C161.998 315.152 156.526 318.224 156.526 324.8C156.526 337.232 173.95 331.904 173.95 341.504C173.95 345.488 170.062 347.696 166.654 347.696C163.102 347.696 160.366 346.064 158.926 343.568L155.806 345.824C158.398 349.376 162.382 350.864 166.51 350.864C171.886 350.864 177.694 347.216 177.694 341.024C177.694 328.784 160.27 333.632 160.27 324.464C160.27 320.192 163.966 318.32 167.518 318.32C170.398 318.32 172.606 319.424 174.094 321.632L177.118 319.28ZM212.494 330.848C210.286 328.256 207.31 327.008 204.286 326.96C196.942 326.864 192.382 332 192.382 338.768C192.382 345.536 196.942 350.672 204.286 350.576C207.31 350.528 210.286 349.28 212.494 346.688L209.902 344.72C208.846 346.352 206.782 347.696 204.286 347.696C199.054 347.792 195.838 343.904 195.838 338.768C195.838 333.632 199.054 329.744 204.286 329.84C206.782 329.84 208.846 331.184 209.902 332.816L212.494 330.848ZM227.026 350H230.194V337.328C230.194 334.304 232.354 330.128 237.154 330.128C238.018 330.128 238.594 330.224 238.978 330.368L239.602 327.248C238.93 327.056 238.162 326.96 237.25 326.96C233.314 326.96 230.962 329.312 230.05 331.712H229.954V327.536H226.834C226.93 330.8 227.026 332.528 227.026 334.544V350ZM256.516 327.536H253.348V350H256.516V327.536ZM257.236 318.896C257.236 317.552 256.084 316.592 254.932 316.592C253.78 316.592 252.628 317.552 252.628 318.896C252.628 320.24 253.78 321.2 254.932 321.2C256.084 321.2 257.236 320.24 257.236 318.896ZM274.159 363.824H277.327V346.256H277.423C279.487 349.28 283.183 350.576 286.159 350.576C293.167 350.576 298.111 345.536 298.111 338.768C298.111 332 293.167 326.96 286.159 326.96C283.183 326.96 279.487 328.256 277.423 331.28H277.327V327.536H274.159V363.824ZM294.655 338.768C294.655 343.808 291.391 347.696 286.159 347.696C280.975 347.696 277.183 343.808 277.183 338.768C277.183 333.728 280.975 329.84 286.159 329.84C291.391 329.84 294.655 333.728 294.655 338.768ZM325.119 327.536H318.639V321.2H315.471V327.536H310.719V330.416H315.471V344.576C315.471 349.52 318.639 350.576 321.039 350.576C322.623 350.576 324.159 350.288 325.311 349.76L325.167 346.832C324.207 347.36 323.007 347.696 321.903 347.696C319.935 347.696 318.639 347.024 318.639 343.664V330.416H325.119V327.536Z" fill="#5689A6"/>
<path d="M62.7994 116.072H80.1755L83.9195 125H87.9514L73.1674 91.016H69.8074L55.0234 125H59.0554L62.7994 116.072ZM71.4874 95.048L78.8314 112.904H64.0954L71.4874 95.048ZM101.146 102.536C101.242 104.168 101.386 106.28 101.386 107.48V125H104.554V113.48C104.554 105.272 110.698 104.84 111.37 104.84C116.074 104.84 117.466 107.576 117.466 112.568V125H120.634V110.744C120.634 105.176 117.898 101.96 112.186 101.96C109.21 101.96 106.042 103.688 104.65 106.136H104.554C104.554 104.936 104.554 103.736 104.41 102.536H101.146ZM137.434 132.008C140.314 135.08 143.77 136.52 148.234 136.52C158.314 136.52 160.282 129.704 160.282 124.808V102.536H157.114V106.28H157.018C154.426 102.776 151.018 101.96 148.33 101.96C141.706 101.96 136.906 107.048 136.906 113.576C136.906 120.152 142.138 125 148.618 125C151.882 125 155.002 123.8 157.018 120.776H157.114V124.808C157.114 129.656 154.81 133.64 148.378 133.64C144.778 133.64 141.658 132.008 139.786 129.512L137.434 132.008ZM140.362 113.48C140.362 108.776 144.01 104.84 148.714 104.84C153.994 104.84 157.21 108.776 157.21 113.48C157.402 118.664 153.322 122.12 148.714 122.12C144.01 122.12 140.362 118.184 140.362 113.48ZM196.889 125C196.793 123.368 196.649 121.256 196.649 120.056V102.536H193.481V114.056C193.481 122.264 187.337 122.696 186.665 122.696C181.961 122.696 180.569 119.96 180.569 114.968V102.536H177.401V116.792C177.401 122.36 180.137 125.576 185.849 125.576C188.825 125.576 191.993 123.848 193.385 121.4H193.481C193.481 122.6 193.481 123.8 193.625 125H196.889ZM217.961 88.712H214.793V125H217.961V88.712ZM248.42 111.224C243.044 111.224 234.452 111.704 234.452 119C234.452 123.368 238.196 125.576 242.18 125.576C245.78 125.576 248.276 124.328 250.1 121.352H250.196C250.196 122.552 250.292 123.896 250.484 125H253.556C253.364 123.8 253.172 121.688 253.172 119.96V109.928C253.172 104.456 249.38 101.96 244.964 101.96C240.74 101.96 237.524 103.112 235.46 105.224L237.38 107.48C239.3 105.752 241.604 104.84 244.244 104.84C248.132 104.84 250.004 106.76 250.004 110.648V111.224H248.42ZM250.004 113.816V115.448C250.004 119.432 247.796 122.696 243.188 122.696C240.644 122.696 237.908 121.544 237.908 118.568C237.908 114.056 245.156 113.816 248.372 113.816H250.004ZM270.831 125H273.999V112.328C273.999 109.304 276.159 105.128 280.959 105.128C281.823 105.128 282.399 105.224 282.783 105.368L283.407 102.248C282.735 102.056 281.967 101.96 281.055 101.96C277.119 101.96 274.767 104.312 273.855 106.712H273.759V102.536H270.639C270.735 105.8 270.831 107.528 270.831 109.544V125Z" fill="white"/>
<path d="M97.5093 259.208H103.269L112.581 275H116.805L107.013 258.872C112.581 258.392 115.701 254.792 115.701 250.088C115.701 243.992 111.429 241.016 104.517 241.016H94.0533V275H97.5093V259.208ZM97.5093 244.184H103.653C109.845 244.184 111.957 246.824 111.957 250.088C111.957 253.352 109.845 256.04 103.653 256.04H97.5093V244.184ZM152.282 264.632V263.192C152.282 257.048 148.346 252.008 141.53 251.96C135.146 251.96 130.202 257 130.202 263.768C130.202 270.536 135.146 275.576 141.818 275.576C145.514 275.576 148.826 274.184 151.466 270.824L149.018 268.808C147.77 270.824 145.178 272.696 141.818 272.696C137.354 272.696 133.946 269.144 133.562 264.632H152.282ZM133.658 262.04C133.658 258.344 137.402 254.84 141.53 254.84C146.09 254.84 148.826 257.768 148.826 262.04H133.658ZM180.842 261.224C175.466 261.224 166.874 261.704 166.874 269C166.874 273.368 170.618 275.576 174.602 275.576C178.202 275.576 180.698 274.328 182.522 271.352H182.618C182.618 272.552 182.714 273.896 182.906 275H185.978C185.786 273.8 185.594 271.688 185.594 269.96V259.928C185.594 254.456 181.802 251.96 177.386 251.96C173.162 251.96 169.946 253.112 167.882 255.224L169.802 257.48C171.722 255.752 174.026 254.84 176.666 254.84C180.554 254.84 182.426 256.76 182.426 260.648V261.224H180.842ZM182.426 263.816V265.448C182.426 269.432 180.218 272.696 175.61 272.696C173.066 272.696 170.33 271.544 170.33 268.568C170.33 264.056 177.578 263.816 180.794 263.816H182.426ZM221.877 255.848C219.669 253.256 216.693 252.008 213.669 251.96C206.325 251.864 201.765 257 201.765 263.768C201.765 270.536 206.325 275.672 213.669 275.576C216.693 275.528 219.669 274.28 221.877 271.688L219.285 269.72C218.229 271.352 216.165 272.696 213.669 272.696C208.437 272.792 205.221 268.904 205.221 263.768C205.221 258.632 208.437 254.744 213.669 254.84C216.165 254.84 218.229 256.184 219.285 257.816L221.877 255.848ZM247.689 252.536H241.209V246.2H238.041V252.536H233.289V255.416H238.041V269.576C238.041 274.52 241.209 275.576 243.609 275.576C245.193 275.576 246.729 275.288 247.881 274.76L247.737 271.832C246.777 272.36 245.577 272.696 244.473 272.696C242.505 272.696 241.209 272.024 241.209 268.664V255.416H247.689V252.536Z" fill="white"/>
<path d="M145.19 192.608C142.646 196.544 138.998 197.696 135.446 197.696C126.71 197.696 121.478 190.832 121.478 183.008C121.478 175.184 126.71 168.32 135.446 168.32C139.046 168.32 142.838 170.576 144.182 172.784L147.206 170.528C144.23 166.736 139.67 165.152 135.446 165.152C125.318 165.152 117.734 172.688 117.734 183.008C117.734 193.328 125.318 200.864 135.446 200.864C141.062 200.864 145.766 198.128 148.022 194.624L145.19 192.608ZM182.939 169.28C180.251 166.208 177.179 165.152 173.339 165.152C167.819 165.152 162.347 168.224 162.347 174.8C162.347 187.232 179.771 181.904 179.771 191.504C179.771 195.488 175.883 197.696 172.475 197.696C168.923 197.696 166.187 196.064 164.747 193.568L161.627 195.824C164.219 199.376 168.203 200.864 172.331 200.864C177.707 200.864 183.515 197.216 183.515 191.024C183.515 178.784 166.091 183.632 166.091 174.464C166.091 170.192 169.787 168.32 173.339 168.32C176.219 168.32 178.427 169.424 179.915 171.632L182.939 169.28ZM219.61 169.28C216.922 166.208 213.85 165.152 210.01 165.152C204.49 165.152 199.018 168.224 199.018 174.8C199.018 187.232 216.442 181.904 216.442 191.504C216.442 195.488 212.554 197.696 209.146 197.696C205.594 197.696 202.858 196.064 201.418 193.568L198.298 195.824C200.89 199.376 204.874 200.864 209.002 200.864C214.378 200.864 220.186 197.216 220.186 191.024C220.186 178.784 202.762 183.632 202.762 174.464C202.762 170.192 206.458 168.32 210.01 168.32C212.89 168.32 215.098 169.424 216.586 171.632L219.61 169.28Z" fill="#5689A6"/>
</svg>
