<svg width="56" height="63" viewBox="0 0 56 63" fill="none" xmlns="http://www.w3.org/2000/svg">
<path d="M24.4006 2.99522L52.784 31.3759L24.4006 59.7567C23.8891 60.2861 23.9039 61.13 24.4333 61.6415C24.9499 62.1403 25.7688 62.1403 26.2853 61.6415L55.6098 32.317C56.1301 31.7965 56.1301 30.9528 55.6098 30.4322L26.2854 1.10779C25.7559 0.596319 24.9121 0.611064 24.4006 1.14053C23.9016 1.65712 23.9016 2.476 24.4006 2.9926V2.99522Z" fill="#607D8B"/>
<path d="M0.407776 2.99522L28.7912 31.3759L0.407776 59.7567C-0.103694 60.2861 -0.0889485 61.13 0.440516 61.6415C0.95711 62.1403 1.77599 62.1403 2.29258 61.6415L31.6171 32.317C32.1374 31.7965 32.1374 30.9528 31.6171 30.4322L2.29258 1.10779C1.78111 0.578321 0.937366 0.563701 0.407776 1.07505C-0.121814 1.58639 -0.136309 2.43026 0.375036 2.95985C0.385783 2.97097 0.396655 2.98185 0.407776 2.99259V2.99522Z" fill="#607D8B"/>
</svg>
