<svg width="56" height="62" viewBox="0 0 56 62" fill="none" xmlns="http://www.w3.org/2000/svg">
<path d="M31.5994 59.0204L3.21598 30.6397L31.5994 2.25894C32.1109 1.72948 32.0961 0.885607 31.5667 0.374137C31.0501 -0.124712 30.2312 -0.124712 29.7147 0.374137L0.390212 29.6986C-0.130131 30.2191 -0.130131 31.0629 0.390212 31.5835L29.7146 60.9078C30.2441 61.4193 31.0879 61.4046 31.5994 60.8751C32.0984 60.3585 32.0984 59.5396 31.5994 59.023V59.0204Z" fill="#607D8B"/>
<path d="M55.5921 59.0204L27.2087 30.6397L55.5921 2.25894C56.1036 1.72948 56.0888 0.885607 55.5594 0.374137C55.0428 -0.124712 54.2239 -0.124712 53.7073 0.374137L24.3828 29.6986C23.8624 30.2191 23.8624 31.0629 24.3828 31.5835L53.7073 60.9078C54.2188 61.4373 55.0625 61.4519 55.5921 60.9406C56.1217 60.4292 56.1362 59.5854 55.6248 59.0558C55.6141 59.0447 55.6032 59.0338 55.5921 59.023V59.0204Z" fill="#607D8B"/>
</svg>
