<svg width="328" height="551" viewBox="0 0 328 551" fill="none" xmlns="http://www.w3.org/2000/svg">
<path d="M34.6578 9.896C34.6578 10.568 34.4178 11.128 33.9378 11.576C33.4578 11.992 32.9298 12.2 32.3538 12.2C31.7778 12.2 31.2498 11.992 30.7698 11.576C30.2898 11.128 30.0498 10.568 30.0498 9.896C30.0498 9.224 30.2898 8.68 30.7698 8.264C31.2498 7.816 31.7778 7.592 32.3538 7.592C32.9298 7.592 33.4578 7.816 33.9378 8.264C34.4178 8.68 34.6578 9.224 34.6578 9.896ZM25.5378 49.304L25.6818 49.352C25.9378 49.416 26.2258 49.48 26.5458 49.544C26.8338 49.608 27.1058 49.64 27.3618 49.64C28.1298 49.64 28.7378 49.496 29.1858 49.208C29.6658 48.92 30.0178 48.536 30.2418 48.056C30.4658 47.608 30.6098 47.112 30.6738 46.568C30.7378 46.024 30.7698 45.48 30.7698 44.936V18.536H33.9378V45.464C33.9378 45.784 33.9218 46.328 33.8898 47.096C33.8578 47.896 33.6498 48.696 33.2658 49.496C32.9138 50.296 32.2898 51 31.3938 51.608C30.5298 52.216 29.2658 52.52 27.6018 52.52C26.7058 52.52 25.8738 52.36 25.1058 52.04L25.5378 49.304ZM62.349 29.816C61.549 29.816 60.541 29.864 59.325 29.96C58.141 30.024 56.989 30.216 55.869 30.536C54.781 30.824 53.837 31.288 53.037 31.928C52.269 32.568 51.885 33.448 51.885 34.568C51.885 35.304 52.029 35.944 52.317 36.488C52.637 37 53.053 37.432 53.565 37.784C54.077 38.104 54.637 38.344 55.245 38.504C55.885 38.632 56.525 38.696 57.165 38.696C58.317 38.696 59.309 38.504 60.141 38.12C61.005 37.736 61.725 37.224 62.301 36.584C62.877 35.912 63.293 35.144 63.549 34.28C63.837 33.384 63.981 32.44 63.981 31.448V29.816H62.349ZM63.981 27.224V26.648C63.981 22.776 62.061 20.84 58.221 20.84C55.597 20.84 53.309 21.72 51.357 23.48L49.437 21.224C51.549 19.048 54.717 17.96 58.941 17.96C60.029 17.96 61.069 18.12 62.061 18.44C63.085 18.76 63.965 19.256 64.701 19.928C65.437 20.568 66.029 21.384 66.477 22.376C66.925 23.368 67.149 24.552 67.149 25.928V35.96C67.149 36.824 67.181 37.736 67.245 38.696C67.341 39.624 67.437 40.392 67.533 41H64.461C64.365 40.456 64.285 39.864 64.221 39.224C64.189 38.584 64.173 37.96 64.173 37.352H64.077C63.149 38.856 62.045 39.944 60.765 40.616C59.517 41.256 57.981 41.576 56.157 41.576C55.165 41.576 54.205 41.432 53.277 41.144C52.349 40.888 51.517 40.488 50.781 39.944C50.077 39.368 49.501 38.68 49.053 37.88C48.637 37.048 48.429 36.088 48.429 35C48.429 33.176 48.893 31.752 49.821 30.728C50.781 29.672 51.965 28.888 53.373 28.376C54.813 27.864 56.333 27.544 57.933 27.416C59.565 27.288 61.053 27.224 62.397 27.224H63.981ZM92.3596 41H88.8076L79.6876 18.536H83.4796L90.6316 37.448H90.7276L97.8796 18.536H101.48L92.3596 41ZM126.396 29.816C125.596 29.816 124.588 29.864 123.372 29.96C122.188 30.024 121.036 30.216 119.916 30.536C118.828 30.824 117.884 31.288 117.084 31.928C116.316 32.568 115.932 33.448 115.932 34.568C115.932 35.304 116.076 35.944 116.364 36.488C116.684 37 117.1 37.432 117.612 37.784C118.124 38.104 118.684 38.344 119.292 38.504C119.932 38.632 120.572 38.696 121.212 38.696C122.364 38.696 123.356 38.504 124.188 38.12C125.052 37.736 125.772 37.224 126.348 36.584C126.924 35.912 127.34 35.144 127.596 34.28C127.884 33.384 128.028 32.44 128.028 31.448V29.816H126.396ZM128.028 27.224V26.648C128.028 22.776 126.108 20.84 122.268 20.84C119.644 20.84 117.356 21.72 115.404 23.48L113.484 21.224C115.596 19.048 118.764 17.96 122.988 17.96C124.076 17.96 125.116 18.12 126.108 18.44C127.132 18.76 128.012 19.256 128.748 19.928C129.484 20.568 130.076 21.384 130.524 22.376C130.972 23.368 131.196 24.552 131.196 25.928V35.96C131.196 36.824 131.228 37.736 131.292 38.696C131.388 39.624 131.484 40.392 131.58 41H128.508C128.412 40.456 128.332 39.864 128.268 39.224C128.236 38.584 128.22 37.96 128.22 37.352H128.124C127.196 38.856 126.092 39.944 124.812 40.616C123.564 41.256 122.028 41.576 120.204 41.576C119.212 41.576 118.252 41.432 117.324 41.144C116.396 40.888 115.564 40.488 114.828 39.944C114.124 39.368 113.548 38.68 113.1 37.88C112.684 37.048 112.476 36.088 112.476 35C112.476 33.176 112.94 31.752 113.868 30.728C114.828 29.672 116.012 28.888 117.42 28.376C118.86 27.864 120.38 27.544 121.98 27.416C123.612 27.288 125.1 27.224 126.444 27.224H128.028ZM158.423 23.864C157.943 22.936 157.303 22.2 156.503 21.656C155.703 21.112 154.727 20.84 153.575 20.84C153.031 20.84 152.471 20.904 151.895 21.032C151.351 21.16 150.855 21.368 150.407 21.656C149.959 21.912 149.591 22.248 149.303 22.664C149.047 23.08 148.919 23.592 148.919 24.2C148.919 25.256 149.287 26.024 150.023 26.504C150.759 26.984 151.863 27.4 153.335 27.752L156.551 28.52C158.119 28.872 159.415 29.592 160.439 30.68C161.495 31.736 162.023 33.064 162.023 34.664C162.023 35.88 161.767 36.936 161.255 37.832C160.775 38.696 160.119 39.416 159.287 39.992C158.487 40.536 157.559 40.936 156.503 41.192C155.447 41.448 154.375 41.576 153.287 41.576C151.559 41.576 149.943 41.256 148.439 40.616C146.967 39.944 145.703 38.808 144.647 37.208L147.383 35.336C148.023 36.36 148.823 37.176 149.783 37.784C150.775 38.392 151.943 38.696 153.287 38.696C153.927 38.696 154.567 38.632 155.207 38.504C155.847 38.344 156.407 38.12 156.887 37.832C157.399 37.512 157.799 37.112 158.087 36.632C158.407 36.152 158.567 35.592 158.567 34.952C158.567 33.832 158.151 33.032 157.319 32.552C156.487 32.04 155.479 31.64 154.295 31.352L151.223 30.632C150.839 30.536 150.311 30.376 149.639 30.152C148.999 29.928 148.359 29.592 147.719 29.144C147.111 28.696 146.583 28.12 146.135 27.416C145.687 26.68 145.463 25.784 145.463 24.728C145.463 23.576 145.687 22.568 146.135 21.704C146.615 20.84 147.239 20.136 148.007 19.592C148.807 19.048 149.703 18.648 150.695 18.392C151.687 18.104 152.711 17.96 153.767 17.96C155.335 17.96 156.791 18.264 158.135 18.872C159.479 19.48 160.519 20.52 161.255 21.992L158.423 23.864ZM191.324 23.816C190.78 22.984 190.012 22.28 189.02 21.704C188.06 21.128 186.956 20.84 185.708 20.84C184.396 20.808 183.212 21.016 182.156 21.464C181.132 21.912 180.252 22.536 179.516 23.336C178.78 24.136 178.22 25.096 177.836 26.216C177.452 27.304 177.26 28.488 177.26 29.768C177.26 31.048 177.452 32.248 177.836 33.368C178.22 34.456 178.78 35.4 179.516 36.2C180.252 37 181.132 37.624 182.156 38.072C183.212 38.52 184.396 38.728 185.708 38.696C186.956 38.696 188.06 38.408 189.02 37.832C190.012 37.256 190.78 36.552 191.324 35.72L193.916 37.688C192.796 39 191.532 39.976 190.124 40.616C188.716 41.224 187.244 41.544 185.708 41.576C183.884 41.608 182.236 41.336 180.764 40.76C179.292 40.152 178.028 39.32 176.972 38.264C175.948 37.208 175.164 35.96 174.62 34.52C174.076 33.048 173.804 31.464 173.804 29.768C173.804 28.072 174.076 26.504 174.62 25.064C175.164 23.592 175.948 22.328 176.972 21.272C178.028 20.216 179.292 19.4 180.764 18.824C182.236 18.216 183.884 17.928 185.708 17.96C187.244 17.992 188.716 18.328 190.124 18.968C191.532 19.576 192.796 20.536 193.916 21.848L191.324 23.816ZM206.448 25.544C206.448 24.552 206.416 23.544 206.352 22.52C206.32 21.496 206.288 20.168 206.256 18.536H209.376V22.712H209.472C209.696 22.104 210.016 21.528 210.432 20.984C210.848 20.408 211.344 19.896 211.92 19.448C212.528 19 213.216 18.648 213.984 18.392C214.784 18.104 215.68 17.96 216.672 17.96C217.568 17.96 218.352 18.056 219.024 18.248L218.4 21.368C217.984 21.208 217.376 21.128 216.576 21.128C215.36 21.128 214.32 21.368 213.456 21.848C212.592 22.296 211.872 22.888 211.296 23.624C210.72 24.328 210.288 25.096 210 25.928C209.744 26.76 209.616 27.56 209.616 28.328V41H206.448V25.544ZM234.658 9.896C234.658 10.568 234.418 11.128 233.938 11.576C233.458 11.992 232.93 12.2 232.354 12.2C231.778 12.2 231.25 11.992 230.77 11.576C230.29 11.128 230.05 10.568 230.05 9.896C230.05 9.224 230.29 8.68 230.77 8.264C231.25 7.816 231.778 7.592 232.354 7.592C232.93 7.592 233.458 7.816 233.938 8.264C234.418 8.68 234.658 9.224 234.658 9.896ZM233.938 41H230.77V18.536H233.938V41ZM270.077 29.768C270.077 28.52 269.869 27.352 269.453 26.264C269.069 25.176 268.509 24.232 267.773 23.432C267.037 22.632 266.141 22.008 265.085 21.56C264.061 21.08 262.893 20.84 261.581 20.84C260.269 20.84 259.069 21.08 257.981 21.56C256.893 22.008 255.949 22.632 255.149 23.432C254.349 24.232 253.725 25.176 253.277 26.264C252.829 27.352 252.605 28.52 252.605 29.768C252.605 31.016 252.829 32.184 253.277 33.272C253.725 34.36 254.349 35.304 255.149 36.104C255.949 36.904 256.893 37.544 257.981 38.024C259.069 38.472 260.269 38.696 261.581 38.696C262.893 38.696 264.061 38.472 265.085 38.024C266.141 37.544 267.037 36.904 267.773 36.104C268.509 35.304 269.069 34.36 269.453 33.272C269.869 32.184 270.077 31.016 270.077 29.768ZM249.581 18.536H252.749V22.28H252.845C253.357 21.512 253.965 20.856 254.669 20.312C255.373 19.768 256.109 19.32 256.877 18.968C257.645 18.616 258.429 18.36 259.229 18.2C260.061 18.04 260.845 17.96 261.581 17.96C263.341 17.96 264.941 18.264 266.381 18.872C267.853 19.448 269.117 20.264 270.173 21.32C271.229 22.376 272.045 23.624 272.621 25.064C273.229 26.504 273.533 28.072 273.533 29.768C273.533 31.464 273.229 33.032 272.621 34.472C272.045 35.912 271.229 37.16 270.173 38.216C269.117 39.272 267.853 40.104 266.381 40.712C264.941 41.288 263.341 41.576 261.581 41.576C260.845 41.576 260.061 41.496 259.229 41.336C258.429 41.176 257.645 40.92 256.877 40.568C256.109 40.216 255.373 39.768 254.669 39.224C253.965 38.68 253.357 38.024 252.845 37.256H252.749V54.824H249.581V18.536ZM298.541 21.416H292.061V34.664C292.061 35.496 292.141 36.184 292.301 36.728C292.461 37.24 292.685 37.64 292.973 37.928C293.261 38.216 293.597 38.424 293.981 38.552C294.397 38.648 294.845 38.696 295.325 38.696C295.869 38.696 296.429 38.616 297.005 38.456C297.581 38.296 298.109 38.088 298.589 37.832L298.733 40.76C297.549 41.304 296.125 41.576 294.461 41.576C293.853 41.576 293.213 41.496 292.541 41.336C291.901 41.176 291.309 40.872 290.765 40.424C290.221 39.976 289.773 39.368 289.421 38.6C289.069 37.832 288.893 36.824 288.893 35.576V21.416H284.141V18.536H288.893V12.2H292.061V18.536H298.541V21.416Z" fill="white"/>
<path d="M86.4983 478.04C86.4983 475.896 85.8583 474.168 84.5783 472.856C83.2983 471.512 81.5063 470.84 79.2023 470.84C78.1783 470.84 77.1863 471.048 76.2263 471.464C75.2663 471.848 74.4183 472.376 73.6823 473.048C72.9783 473.72 72.4023 474.488 71.9543 475.352C71.5383 476.216 71.3303 477.112 71.3303 478.04H86.4983ZM71.2343 480.632C71.3303 481.752 71.6023 482.808 72.0503 483.8C72.4983 484.792 73.0903 485.656 73.8263 486.392C74.5623 487.096 75.4103 487.656 76.3703 488.072C77.3303 488.488 78.3703 488.696 79.4903 488.696C81.1863 488.696 82.6423 488.312 83.8583 487.544C85.1063 486.744 86.0503 485.832 86.6903 484.808L89.1383 486.824C87.7943 488.52 86.3063 489.736 84.6743 490.472C83.0743 491.208 81.3463 491.576 79.4903 491.576C77.8263 491.576 76.2743 491.288 74.8343 490.712C73.4263 490.104 72.2103 489.272 71.1863 488.216C70.1623 487.16 69.3463 485.912 68.7383 484.472C68.1623 483.032 67.8743 481.464 67.8743 479.768C67.8743 478.072 68.1623 476.504 68.7383 475.064C69.3143 473.624 70.1143 472.376 71.1383 471.32C72.1623 470.264 73.3623 469.448 74.7383 468.872C76.1143 468.264 77.6023 467.96 79.2023 467.96C80.8983 467.96 82.4183 468.264 83.7623 468.872C85.1063 469.48 86.2263 470.296 87.1223 471.32C88.0503 472.312 88.7543 473.496 89.2343 474.872C89.7143 476.216 89.9543 477.656 89.9543 479.192V480.632H71.2343ZM105.722 468.536C105.786 469.144 105.818 469.752 105.818 470.36C105.85 470.936 105.866 471.528 105.866 472.136H105.962C106.314 471.528 106.762 470.968 107.306 470.456C107.85 469.944 108.458 469.512 109.13 469.16C109.802 468.776 110.506 468.488 111.242 468.296C112.01 468.072 112.762 467.96 113.498 467.96C116.378 467.96 118.506 468.728 119.882 470.264C121.258 471.768 121.946 473.928 121.946 476.744V491H118.778V478.568C118.778 476.072 118.346 474.168 117.482 472.856C116.618 471.512 115.018 470.84 112.682 470.84C112.522 470.84 112.074 470.904 111.338 471.032C110.602 471.16 109.818 471.512 108.986 472.088C108.186 472.664 107.466 473.528 106.826 474.68C106.186 475.832 105.866 477.432 105.866 479.48V491H102.698V473.48C102.698 472.872 102.666 472.104 102.602 471.176C102.57 470.248 102.522 469.368 102.458 468.536H105.722ZM138.674 479.48C138.674 480.664 138.882 481.784 139.298 482.84C139.746 483.864 140.338 484.776 141.074 485.576C141.842 486.344 142.722 486.968 143.714 487.448C144.738 487.896 145.842 488.12 147.026 488.12C148.178 488.12 149.266 487.912 150.29 487.496C151.346 487.08 152.274 486.504 153.074 485.768C153.874 485 154.482 484.088 154.898 483.032C155.346 481.976 155.554 480.792 155.522 479.48C155.522 478.296 155.33 477.192 154.946 476.168C154.562 475.112 154.002 474.2 153.266 473.432C152.53 472.632 151.634 472.008 150.578 471.56C149.522 471.08 148.338 470.84 147.026 470.84C145.842 470.84 144.738 471.08 143.714 471.56C142.722 472.008 141.842 472.632 141.074 473.432C140.338 474.2 139.746 475.112 139.298 476.168C138.882 477.192 138.674 478.296 138.674 479.48ZM138.098 495.512C139.026 496.76 140.226 497.752 141.698 498.488C143.202 499.256 144.866 499.64 146.69 499.64C148.29 499.64 149.65 499.4 150.77 498.92C151.89 498.472 152.786 497.848 153.458 497.048C154.162 496.248 154.658 495.304 154.946 494.216C155.266 493.16 155.426 492.024 155.426 490.808V486.776H155.33C154.306 488.312 153.058 489.4 151.586 490.04C150.114 490.68 148.562 491 146.93 491C145.298 491 143.762 490.712 142.322 490.136C140.914 489.56 139.682 488.776 138.626 487.784C137.57 486.76 136.738 485.544 136.13 484.136C135.522 482.728 135.218 481.208 135.218 479.576C135.218 477.944 135.506 476.424 136.082 475.016C136.658 473.608 137.442 472.376 138.434 471.32C139.458 470.264 140.658 469.448 142.034 468.872C143.442 468.264 144.978 467.96 146.642 467.96C147.314 467.96 148.018 468.024 148.754 468.152C149.522 468.28 150.274 468.504 151.01 468.824C151.778 469.144 152.53 469.592 153.266 470.168C154.002 470.712 154.69 471.416 155.33 472.28H155.426V468.536H158.594V490.808C158.594 492.024 158.434 493.32 158.114 494.696C157.826 496.072 157.234 497.336 156.338 498.488C155.474 499.64 154.258 500.6 152.69 501.368C151.122 502.136 149.074 502.52 146.546 502.52C144.306 502.52 142.306 502.152 140.546 501.416C138.786 500.68 137.186 499.544 135.746 498.008L138.098 495.512ZM176.602 491H173.434V454.712H176.602V491ZM195.853 459.896C195.853 460.568 195.613 461.128 195.133 461.576C194.653 461.992 194.125 462.2 193.549 462.2C192.973 462.2 192.445 461.992 191.965 461.576C191.485 461.128 191.245 460.568 191.245 459.896C191.245 459.224 191.485 458.68 191.965 458.264C192.445 457.816 192.973 457.592 193.549 457.592C194.125 457.592 194.653 457.816 195.133 458.264C195.613 458.68 195.853 459.224 195.853 459.896ZM195.133 491H191.965V468.536H195.133V491ZM221.68 473.864C221.2 472.936 220.56 472.2 219.76 471.656C218.96 471.112 217.984 470.84 216.832 470.84C216.288 470.84 215.728 470.904 215.152 471.032C214.608 471.16 214.112 471.368 213.664 471.656C213.216 471.912 212.848 472.248 212.56 472.664C212.304 473.08 212.176 473.592 212.176 474.2C212.176 475.256 212.544 476.024 213.28 476.504C214.016 476.984 215.12 477.4 216.592 477.752L219.808 478.52C221.376 478.872 222.672 479.592 223.696 480.68C224.752 481.736 225.28 483.064 225.28 484.664C225.28 485.88 225.024 486.936 224.512 487.832C224.032 488.696 223.376 489.416 222.544 489.992C221.744 490.536 220.816 490.936 219.76 491.192C218.704 491.448 217.632 491.576 216.544 491.576C214.816 491.576 213.2 491.256 211.696 490.616C210.224 489.944 208.96 488.808 207.904 487.208L210.64 485.336C211.28 486.36 212.08 487.176 213.04 487.784C214.032 488.392 215.2 488.696 216.544 488.696C217.184 488.696 217.824 488.632 218.464 488.504C219.104 488.344 219.664 488.12 220.144 487.832C220.656 487.512 221.056 487.112 221.344 486.632C221.664 486.152 221.824 485.592 221.824 484.952C221.824 483.832 221.408 483.032 220.576 482.552C219.744 482.04 218.736 481.64 217.552 481.352L214.48 480.632C214.096 480.536 213.568 480.376 212.896 480.152C212.256 479.928 211.616 479.592 210.976 479.144C210.368 478.696 209.84 478.12 209.392 477.416C208.944 476.68 208.72 475.784 208.72 474.728C208.72 473.576 208.944 472.568 209.392 471.704C209.872 470.84 210.496 470.136 211.264 469.592C212.064 469.048 212.96 468.648 213.952 468.392C214.944 468.104 215.968 467.96 217.024 467.96C218.592 467.96 220.048 468.264 221.392 468.872C222.736 469.48 223.776 470.52 224.512 471.992L221.68 473.864ZM237.214 454.712H240.382V472.136H240.478C240.83 471.528 241.278 470.968 241.822 470.456C242.366 469.944 242.974 469.512 243.646 469.16C244.318 468.776 245.022 468.488 245.758 468.296C246.526 468.072 247.278 467.96 248.014 467.96C250.894 467.96 253.022 468.728 254.398 470.264C255.774 471.768 256.462 473.928 256.462 476.744V491H253.294V478.568C253.294 476.072 252.862 474.168 251.998 472.856C251.134 471.512 249.534 470.84 247.198 470.84C247.038 470.84 246.59 470.904 245.854 471.032C245.118 471.16 244.334 471.512 243.502 472.088C242.702 472.664 241.982 473.528 241.342 474.68C240.702 475.832 240.382 477.432 240.382 479.48V491H237.214V454.712Z" fill="#5689A6"/>
<path d="M78.2116 123.864C77.7316 122.936 77.0916 122.2 76.2916 121.656C75.4916 121.112 74.5156 120.84 73.3636 120.84C72.8196 120.84 72.2596 120.904 71.6836 121.032C71.1396 121.16 70.6436 121.368 70.1956 121.656C69.7476 121.912 69.3796 122.248 69.0916 122.664C68.8356 123.08 68.7076 123.592 68.7076 124.2C68.7076 125.256 69.0756 126.024 69.8116 126.504C70.5476 126.984 71.6516 127.4 73.1236 127.752L76.3396 128.52C77.9076 128.872 79.2036 129.592 80.2276 130.68C81.2836 131.736 81.8116 133.064 81.8116 134.664C81.8116 135.88 81.5556 136.936 81.0436 137.832C80.5636 138.696 79.9076 139.416 79.0756 139.992C78.2756 140.536 77.3476 140.936 76.2916 141.192C75.2356 141.448 74.1636 141.576 73.0756 141.576C71.3476 141.576 69.7316 141.256 68.2276 140.616C66.7556 139.944 65.4916 138.808 64.4356 137.208L67.1716 135.336C67.8116 136.36 68.6116 137.176 69.5716 137.784C70.5636 138.392 71.7316 138.696 73.0756 138.696C73.7156 138.696 74.3556 138.632 74.9956 138.504C75.6356 138.344 76.1956 138.12 76.6756 137.832C77.1876 137.512 77.5876 137.112 77.8756 136.632C78.1956 136.152 78.3556 135.592 78.3556 134.952C78.3556 133.832 77.9396 133.032 77.1076 132.552C76.2756 132.04 75.2676 131.64 74.0836 131.352L71.0116 130.632C70.6276 130.536 70.0996 130.376 69.4276 130.152C68.7876 129.928 68.1476 129.592 67.5076 129.144C66.8996 128.696 66.3716 128.12 65.9236 127.416C65.4756 126.68 65.2516 125.784 65.2516 124.728C65.2516 123.576 65.4756 122.568 65.9236 121.704C66.4036 120.84 67.0276 120.136 67.7956 119.592C68.5956 119.048 69.4916 118.648 70.4836 118.392C71.4756 118.104 72.4996 117.96 73.5556 117.96C75.1236 117.96 76.5796 118.264 77.9236 118.872C79.2676 119.48 80.3076 120.52 81.0436 121.992L78.2116 123.864ZM101.353 109.896C101.353 110.568 101.113 111.128 100.633 111.576C100.153 111.992 99.6251 112.2 99.0491 112.2C98.4731 112.2 97.9451 111.992 97.4651 111.576C96.9851 111.128 96.7451 110.568 96.7451 109.896C96.7451 109.224 96.9851 108.68 97.4651 108.264C97.9451 107.816 98.4731 107.592 99.0491 107.592C99.6251 107.592 100.153 107.816 100.633 108.264C101.113 108.68 101.353 109.224 101.353 109.896ZM100.633 141H97.4651V118.536H100.633V141ZM121.3 118.536C121.364 119.144 121.396 119.752 121.396 120.36C121.428 120.936 121.444 121.528 121.444 122.136H121.54C121.892 121.528 122.34 120.968 122.884 120.456C123.428 119.944 124.036 119.512 124.708 119.16C125.38 118.776 126.084 118.488 126.82 118.296C127.588 118.072 128.34 117.96 129.076 117.96C131.956 117.96 134.084 118.728 135.46 120.264C136.836 121.768 137.524 123.928 137.524 126.744V141H134.356V128.568C134.356 126.072 133.924 124.168 133.06 122.856C132.196 121.512 130.596 120.84 128.26 120.84C128.1 120.84 127.652 120.904 126.916 121.032C126.18 121.16 125.396 121.512 124.564 122.088C123.764 122.664 123.044 123.528 122.404 124.68C121.764 125.832 121.444 127.432 121.444 129.48V141H118.276V123.48C118.276 122.872 118.244 122.104 118.18 121.176C118.148 120.248 118.1 119.368 118.036 118.536H121.3ZM167.716 129.816C166.916 129.816 165.908 129.864 164.692 129.96C163.508 130.024 162.356 130.216 161.236 130.536C160.148 130.824 159.204 131.288 158.404 131.928C157.636 132.568 157.252 133.448 157.252 134.568C157.252 135.304 157.396 135.944 157.684 136.488C158.004 137 158.42 137.432 158.932 137.784C159.444 138.104 160.004 138.344 160.612 138.504C161.252 138.632 161.892 138.696 162.532 138.696C163.684 138.696 164.676 138.504 165.508 138.12C166.372 137.736 167.092 137.224 167.668 136.584C168.244 135.912 168.66 135.144 168.916 134.28C169.204 133.384 169.348 132.44 169.348 131.448V129.816H167.716ZM169.348 127.224V126.648C169.348 122.776 167.428 120.84 163.588 120.84C160.964 120.84 158.676 121.72 156.724 123.48L154.804 121.224C156.916 119.048 160.084 117.96 164.308 117.96C165.396 117.96 166.436 118.12 167.428 118.44C168.452 118.76 169.332 119.256 170.068 119.928C170.804 120.568 171.396 121.384 171.844 122.376C172.292 123.368 172.516 124.552 172.516 125.928V135.96C172.516 136.824 172.548 137.736 172.612 138.696C172.708 139.624 172.804 140.392 172.9 141H169.828C169.732 140.456 169.652 139.864 169.588 139.224C169.556 138.584 169.54 137.96 169.54 137.352H169.444C168.516 138.856 167.412 139.944 166.132 140.616C164.884 141.256 163.348 141.576 161.524 141.576C160.532 141.576 159.572 141.432 158.644 141.144C157.716 140.888 156.884 140.488 156.148 139.944C155.444 139.368 154.868 138.68 154.42 137.88C154.004 137.048 153.796 136.088 153.796 135C153.796 133.176 154.26 131.752 155.188 130.728C156.148 129.672 157.332 128.888 158.74 128.376C160.18 127.864 161.7 127.544 163.3 127.416C164.932 127.288 166.42 127.224 167.764 127.224H169.348ZM201.455 121.416H194.975V134.664C194.975 135.496 195.055 136.184 195.215 136.728C195.375 137.24 195.599 137.64 195.887 137.928C196.175 138.216 196.511 138.424 196.895 138.552C197.311 138.648 197.759 138.696 198.239 138.696C198.783 138.696 199.343 138.616 199.919 138.456C200.495 138.296 201.023 138.088 201.503 137.832L201.647 140.76C200.463 141.304 199.039 141.576 197.375 141.576C196.767 141.576 196.127 141.496 195.455 141.336C194.815 141.176 194.223 140.872 193.679 140.424C193.135 139.976 192.687 139.368 192.335 138.6C191.983 137.832 191.807 136.824 191.807 135.576V121.416H187.055V118.536H191.807V112.2H194.975V118.536H201.455V121.416ZM216.112 125.544C216.112 124.552 216.08 123.544 216.016 122.52C215.984 121.496 215.952 120.168 215.92 118.536H219.04V122.712H219.136C219.36 122.104 219.68 121.528 220.096 120.984C220.512 120.408 221.008 119.896 221.584 119.448C222.192 119 222.88 118.648 223.648 118.392C224.448 118.104 225.344 117.96 226.336 117.96C227.232 117.96 228.016 118.056 228.688 118.248L228.064 121.368C227.648 121.208 227.04 121.128 226.24 121.128C225.024 121.128 223.984 121.368 223.12 121.848C222.256 122.296 221.536 122.888 220.96 123.624C220.384 124.328 219.952 125.096 219.664 125.928C219.408 126.76 219.28 127.56 219.28 128.328V141H216.112V125.544ZM254.482 129.816C253.682 129.816 252.674 129.864 251.458 129.96C250.274 130.024 249.122 130.216 248.002 130.536C246.914 130.824 245.97 131.288 245.17 131.928C244.402 132.568 244.018 133.448 244.018 134.568C244.018 135.304 244.162 135.944 244.45 136.488C244.77 137 245.186 137.432 245.698 137.784C246.21 138.104 246.77 138.344 247.378 138.504C248.018 138.632 248.658 138.696 249.298 138.696C250.45 138.696 251.442 138.504 252.274 138.12C253.138 137.736 253.858 137.224 254.434 136.584C255.01 135.912 255.426 135.144 255.682 134.28C255.97 133.384 256.114 132.44 256.114 131.448V129.816H254.482ZM256.114 127.224V126.648C256.114 122.776 254.194 120.84 250.354 120.84C247.73 120.84 245.442 121.72 243.49 123.48L241.57 121.224C243.682 119.048 246.85 117.96 251.074 117.96C252.162 117.96 253.202 118.12 254.194 118.44C255.218 118.76 256.098 119.256 256.834 119.928C257.57 120.568 258.162 121.384 258.61 122.376C259.058 123.368 259.282 124.552 259.282 125.928V135.96C259.282 136.824 259.314 137.736 259.378 138.696C259.474 139.624 259.57 140.392 259.666 141H256.594C256.498 140.456 256.418 139.864 256.354 139.224C256.322 138.584 256.306 137.96 256.306 137.352H256.21C255.282 138.856 254.178 139.944 252.898 140.616C251.65 141.256 250.114 141.576 248.29 141.576C247.298 141.576 246.338 141.432 245.41 141.144C244.482 140.888 243.65 140.488 242.914 139.944C242.21 139.368 241.634 138.68 241.186 137.88C240.77 137.048 240.562 136.088 240.562 135C240.562 133.176 241.026 131.752 241.954 130.728C242.914 129.672 244.098 128.888 245.506 128.376C246.946 127.864 248.466 127.544 250.066 127.416C251.698 127.288 253.186 127.224 254.53 127.224H256.114Z" fill="white"/>
<path d="M69.2553 77.816C68.4553 77.816 67.4473 77.864 66.2313 77.96C65.0473 78.024 63.8953 78.216 62.7753 78.536C61.6873 78.824 60.7433 79.288 59.9433 79.928C59.1753 80.568 58.7913 81.448 58.7913 82.568C58.7913 83.304 58.9353 83.944 59.2233 84.488C59.5433 85 59.9593 85.432 60.4713 85.784C60.9833 86.104 61.5433 86.344 62.1513 86.504C62.7913 86.632 63.4313 86.696 64.0713 86.696C65.2233 86.696 66.2153 86.504 67.0473 86.12C67.9113 85.736 68.6313 85.224 69.2073 84.584C69.7833 83.912 70.1993 83.144 70.4553 82.28C70.7433 81.384 70.8873 80.44 70.8873 79.448V77.816H69.2553ZM70.8873 75.224V74.648C70.8873 70.776 68.9673 68.84 65.1273 68.84C62.5033 68.84 60.2153 69.72 58.2633 71.48L56.3433 69.224C58.4553 67.048 61.6233 65.96 65.8473 65.96C66.9353 65.96 67.9753 66.12 68.9673 66.44C69.9913 66.76 70.8713 67.256 71.6073 67.928C72.3433 68.568 72.9353 69.384 73.3833 70.376C73.8313 71.368 74.0553 72.552 74.0553 73.928V83.96C74.0553 84.824 74.0873 85.736 74.1513 86.696C74.2473 87.624 74.3433 88.392 74.4393 89H71.3673C71.2713 88.456 71.1913 87.864 71.1273 87.224C71.0953 86.584 71.0793 85.96 71.0793 85.352H70.9833C70.0553 86.856 68.9513 87.944 67.6713 88.616C66.4233 89.256 64.8873 89.576 63.0633 89.576C62.0713 89.576 61.1113 89.432 60.1833 89.144C59.2553 88.888 58.4233 88.488 57.6873 87.944C56.9833 87.368 56.4073 86.68 55.9593 85.88C55.5433 85.048 55.3353 84.088 55.3353 83C55.3353 81.176 55.7993 79.752 56.7273 78.728C57.6873 77.672 58.8713 76.888 60.2793 76.376C61.7193 75.864 63.2393 75.544 64.8393 75.416C66.4713 75.288 67.9593 75.224 69.3033 75.224H70.8873ZM94.4019 66.536C94.4659 67.144 94.4979 67.752 94.4979 68.36C94.5299 68.936 94.5459 69.528 94.5459 70.136H94.6419C94.9939 69.528 95.4419 68.968 95.9859 68.456C96.5299 67.944 97.1379 67.512 97.8099 67.16C98.4819 66.776 99.1859 66.488 99.9219 66.296C100.69 66.072 101.442 65.96 102.178 65.96C105.058 65.96 107.186 66.728 108.562 68.264C109.938 69.768 110.626 71.928 110.626 74.744V89H107.458V76.568C107.458 74.072 107.026 72.168 106.162 70.856C105.298 69.512 103.698 68.84 101.362 68.84C101.202 68.84 100.754 68.904 100.018 69.032C99.2819 69.16 98.4979 69.512 97.6659 70.088C96.8659 70.664 96.1459 71.528 95.5059 72.68C94.8659 73.832 94.5459 75.432 94.5459 77.48V89H91.3779V71.48C91.3779 70.872 91.3459 70.104 91.2819 69.176C91.2499 68.248 91.2019 67.368 91.1379 66.536H94.4019ZM130.354 77.48C130.354 78.664 130.562 79.784 130.978 80.84C131.426 81.864 132.018 82.776 132.754 83.576C133.522 84.344 134.402 84.968 135.394 85.448C136.418 85.896 137.522 86.12 138.706 86.12C139.858 86.12 140.946 85.912 141.97 85.496C143.026 85.08 143.954 84.504 144.754 83.768C145.554 83 146.162 82.088 146.578 81.032C147.026 79.976 147.234 78.792 147.202 77.48C147.202 76.296 147.01 75.192 146.626 74.168C146.242 73.112 145.682 72.2 144.946 71.432C144.21 70.632 143.314 70.008 142.258 69.56C141.202 69.08 140.018 68.84 138.706 68.84C137.522 68.84 136.418 69.08 135.394 69.56C134.402 70.008 133.522 70.632 132.754 71.432C132.018 72.2 131.426 73.112 130.978 74.168C130.562 75.192 130.354 76.296 130.354 77.48ZM129.778 93.512C130.706 94.76 131.906 95.752 133.378 96.488C134.882 97.256 136.546 97.64 138.37 97.64C139.97 97.64 141.33 97.4 142.45 96.92C143.57 96.472 144.466 95.848 145.138 95.048C145.842 94.248 146.338 93.304 146.626 92.216C146.946 91.16 147.106 90.024 147.106 88.808V84.776H147.01C145.986 86.312 144.738 87.4 143.266 88.04C141.794 88.68 140.242 89 138.61 89C136.978 89 135.442 88.712 134.002 88.136C132.594 87.56 131.362 86.776 130.306 85.784C129.25 84.76 128.418 83.544 127.81 82.136C127.202 80.728 126.898 79.208 126.898 77.576C126.898 75.944 127.186 74.424 127.762 73.016C128.338 71.608 129.122 70.376 130.114 69.32C131.138 68.264 132.338 67.448 133.714 66.872C135.122 66.264 136.658 65.96 138.322 65.96C138.994 65.96 139.698 66.024 140.434 66.152C141.202 66.28 141.954 66.504 142.69 66.824C143.458 67.144 144.21 67.592 144.946 68.168C145.682 68.712 146.37 69.416 147.01 70.28H147.106V66.536H150.274V88.808C150.274 90.024 150.114 91.32 149.794 92.696C149.506 94.072 148.914 95.336 148.018 96.488C147.154 97.64 145.938 98.6 144.37 99.368C142.802 100.136 140.754 100.52 138.226 100.52C135.986 100.52 133.986 100.152 132.226 99.416C130.466 98.68 128.866 97.544 127.426 96.008L129.778 93.512ZM183.618 89C183.554 88.392 183.506 87.8 183.474 87.224C183.474 86.616 183.474 86.008 183.474 85.4H183.378C183.026 86.008 182.578 86.568 182.034 87.08C181.49 87.592 180.882 88.04 180.21 88.424C179.538 88.776 178.818 89.048 178.05 89.24C177.314 89.464 176.578 89.576 175.842 89.576C172.962 89.576 170.834 88.824 169.458 87.32C168.082 85.784 167.394 83.608 167.394 80.792V66.536H170.562V78.968C170.562 80.216 170.658 81.32 170.85 82.28C171.042 83.24 171.362 84.056 171.81 84.728C172.29 85.368 172.914 85.864 173.682 86.216C174.482 86.536 175.474 86.696 176.658 86.696C176.818 86.696 177.266 86.632 178.002 86.504C178.738 86.376 179.506 86.024 180.306 85.448C181.138 84.872 181.874 84.008 182.514 82.856C183.154 81.704 183.474 80.104 183.474 78.056V66.536H186.642V84.056C186.642 84.664 186.658 85.432 186.69 86.36C186.754 87.288 186.818 88.168 186.882 89H183.618ZM207.953 89H204.785V52.712H207.953V89ZM238.365 77.816C237.565 77.816 236.557 77.864 235.341 77.96C234.157 78.024 233.005 78.216 231.885 78.536C230.797 78.824 229.853 79.288 229.053 79.928C228.285 80.568 227.901 81.448 227.901 82.568C227.901 83.304 228.045 83.944 228.333 84.488C228.653 85 229.069 85.432 229.581 85.784C230.093 86.104 230.653 86.344 231.261 86.504C231.901 86.632 232.541 86.696 233.181 86.696C234.333 86.696 235.325 86.504 236.157 86.12C237.021 85.736 237.741 85.224 238.317 84.584C238.893 83.912 239.309 83.144 239.565 82.28C239.853 81.384 239.997 80.44 239.997 79.448V77.816H238.365ZM239.997 75.224V74.648C239.997 70.776 238.077 68.84 234.237 68.84C231.613 68.84 229.325 69.72 227.373 71.48L225.453 69.224C227.565 67.048 230.733 65.96 234.957 65.96C236.045 65.96 237.085 66.12 238.077 66.44C239.101 66.76 239.981 67.256 240.717 67.928C241.453 68.568 242.045 69.384 242.493 70.376C242.941 71.368 243.165 72.552 243.165 73.928V83.96C243.165 84.824 243.197 85.736 243.261 86.696C243.357 87.624 243.453 88.392 243.549 89H240.477C240.381 88.456 240.301 87.864 240.237 87.224C240.205 86.584 240.189 85.96 240.189 85.352H240.093C239.165 86.856 238.061 87.944 236.781 88.616C235.533 89.256 233.997 89.576 232.173 89.576C231.181 89.576 230.221 89.432 229.293 89.144C228.365 88.888 227.533 88.488 226.797 87.944C226.093 87.368 225.517 86.68 225.069 85.88C224.653 85.048 224.445 84.088 224.445 83C224.445 81.176 224.909 79.752 225.837 78.728C226.797 77.672 227.981 76.888 229.389 76.376C230.829 75.864 232.349 75.544 233.949 75.416C235.581 75.288 237.069 75.224 238.413 75.224H239.997ZM260.823 73.544C260.823 72.552 260.791 71.544 260.727 70.52C260.695 69.496 260.663 68.168 260.631 66.536H263.751V70.712H263.847C264.071 70.104 264.391 69.528 264.807 68.984C265.223 68.408 265.719 67.896 266.295 67.448C266.903 67 267.591 66.648 268.359 66.392C269.159 66.104 270.055 65.96 271.047 65.96C271.943 65.96 272.727 66.056 273.399 66.248L272.775 69.368C272.359 69.208 271.751 69.128 270.951 69.128C269.735 69.128 268.695 69.368 267.831 69.848C266.967 70.296 266.247 70.888 265.671 71.624C265.095 72.328 264.663 73.096 264.375 73.928C264.119 74.76 263.991 75.56 263.991 76.328V89H260.823V73.544Z" fill="#5689A6"/>
<path d="M61.1428 527.48C61.1428 528.664 61.3508 529.784 61.7668 530.84C62.2148 531.864 62.8068 532.776 63.5428 533.576C64.3108 534.344 65.1908 534.968 66.1828 535.448C67.2068 535.896 68.3108 536.12 69.4948 536.12C70.6468 536.12 71.7348 535.912 72.7588 535.496C73.8148 535.08 74.7428 534.504 75.5428 533.768C76.3428 533 76.9508 532.088 77.3668 531.032C77.8148 529.976 78.0228 528.792 77.9908 527.48C77.9908 526.296 77.7988 525.192 77.4148 524.168C77.0308 523.112 76.4708 522.2 75.7348 521.432C74.9988 520.632 74.1028 520.008 73.0468 519.56C71.9908 519.08 70.8068 518.84 69.4948 518.84C68.3108 518.84 67.2068 519.08 66.1828 519.56C65.1908 520.008 64.3108 520.632 63.5428 521.432C62.8068 522.2 62.2148 523.112 61.7668 524.168C61.3508 525.192 61.1428 526.296 61.1428 527.48ZM60.5668 543.512C61.4948 544.76 62.6948 545.752 64.1668 546.488C65.6708 547.256 67.3348 547.64 69.1588 547.64C70.7588 547.64 72.1188 547.4 73.2388 546.92C74.3588 546.472 75.2548 545.848 75.9268 545.048C76.6308 544.248 77.1268 543.304 77.4148 542.216C77.7348 541.16 77.8948 540.024 77.8948 538.808V534.776H77.7988C76.7748 536.312 75.5268 537.4 74.0548 538.04C72.5828 538.68 71.0308 539 69.3988 539C67.7668 539 66.2308 538.712 64.7908 538.136C63.3828 537.56 62.1508 536.776 61.0948 535.784C60.0388 534.76 59.2068 533.544 58.5988 532.136C57.9908 530.728 57.6868 529.208 57.6868 527.576C57.6868 525.944 57.9748 524.424 58.5508 523.016C59.1268 521.608 59.9108 520.376 60.9028 519.32C61.9268 518.264 63.1268 517.448 64.5028 516.872C65.9108 516.264 67.4468 515.96 69.1108 515.96C69.7828 515.96 70.4868 516.024 71.2228 516.152C71.9908 516.28 72.7428 516.504 73.4788 516.824C74.2468 517.144 74.9988 517.592 75.7348 518.168C76.4708 518.712 77.1588 519.416 77.7988 520.28H77.8948V516.536H81.0628V538.808C81.0628 540.024 80.9028 541.32 80.5828 542.696C80.2948 544.072 79.7028 545.336 78.8068 546.488C77.9428 547.64 76.7268 548.6 75.1588 549.368C73.5908 550.136 71.5428 550.52 69.0148 550.52C66.7748 550.52 64.7748 550.152 63.0148 549.416C61.2548 548.68 59.6548 547.544 58.2148 546.008L60.5668 543.512ZM115.655 526.04C115.655 523.896 115.015 522.168 113.735 520.856C112.455 519.512 110.663 518.84 108.359 518.84C107.335 518.84 106.343 519.048 105.383 519.464C104.423 519.848 103.575 520.376 102.839 521.048C102.135 521.72 101.559 522.488 101.111 523.352C100.695 524.216 100.487 525.112 100.487 526.04H115.655ZM100.391 528.632C100.487 529.752 100.759 530.808 101.207 531.8C101.655 532.792 102.247 533.656 102.983 534.392C103.719 535.096 104.567 535.656 105.527 536.072C106.487 536.488 107.527 536.696 108.647 536.696C110.343 536.696 111.799 536.312 113.015 535.544C114.263 534.744 115.207 533.832 115.847 532.808L118.295 534.824C116.951 536.52 115.463 537.736 113.831 538.472C112.231 539.208 110.503 539.576 108.647 539.576C106.983 539.576 105.431 539.288 103.991 538.712C102.583 538.104 101.367 537.272 100.343 536.216C99.3186 535.16 98.5026 533.912 97.8946 532.472C97.3186 531.032 97.0306 529.464 97.0306 527.768C97.0306 526.072 97.3186 524.504 97.8946 523.064C98.4706 521.624 99.2706 520.376 100.295 519.32C101.319 518.264 102.519 517.448 103.895 516.872C105.271 516.264 106.759 515.96 108.359 515.96C110.055 515.96 111.575 516.264 112.919 516.872C114.263 517.48 115.383 518.296 116.279 519.32C117.207 520.312 117.911 521.496 118.391 522.872C118.871 524.216 119.111 525.656 119.111 527.192V528.632H100.391ZM135.19 523.544C135.19 522.552 135.158 521.544 135.094 520.52C135.062 519.496 135.03 518.168 134.998 516.536H138.118V520.712H138.214C138.438 520.104 138.758 519.528 139.174 518.984C139.59 518.408 140.086 517.896 140.662 517.448C141.27 517 141.958 516.648 142.726 516.392C143.526 516.104 144.422 515.96 145.414 515.96C146.31 515.96 147.094 516.056 147.766 516.248L147.142 519.368C146.726 519.208 146.118 519.128 145.318 519.128C144.102 519.128 143.062 519.368 142.198 519.848C141.334 520.296 140.614 520.888 140.038 521.624C139.462 522.328 139.03 523.096 138.742 523.928C138.486 524.76 138.358 525.56 138.358 526.328V539H135.19V523.544ZM161.636 521.528C161.636 520.696 161.604 519.864 161.54 519.032C161.508 518.2 161.46 517.368 161.396 516.536H164.804V519.944H164.9C165.668 518.632 166.724 517.64 168.068 516.968C169.444 516.296 170.804 515.96 172.148 515.96C172.756 515.96 173.396 516.024 174.068 516.152C174.772 516.28 175.444 516.52 176.084 516.872C176.724 517.192 177.316 517.656 177.86 518.264C178.436 518.872 178.916 519.656 179.3 520.616C179.94 519.176 180.948 518.04 182.324 517.208C183.732 516.376 185.188 515.96 186.692 515.96C189.572 515.96 191.7 516.728 193.076 518.264C194.452 519.768 195.14 521.928 195.14 524.744V539H191.972V525.896C191.972 523.624 191.572 521.88 190.772 520.664C189.972 519.448 188.484 518.84 186.308 518.84C185.124 518.84 184.132 519.08 183.332 519.56C182.532 520.008 181.876 520.616 181.364 521.384C180.884 522.152 180.532 523.032 180.308 524.024C180.084 524.984 179.972 525.992 179.972 527.048V539H176.804V525.896C176.804 523.624 176.404 521.88 175.604 520.664C174.804 519.448 173.316 518.84 171.14 518.84C170.948 518.84 170.5 518.904 169.796 519.032C169.124 519.16 168.42 519.512 167.684 520.088C166.948 520.664 166.276 521.528 165.668 522.68C165.092 523.832 164.804 525.432 164.804 527.48V539H161.636V521.528ZM225.279 527.816C224.479 527.816 223.471 527.864 222.255 527.96C221.071 528.024 219.919 528.216 218.799 528.536C217.711 528.824 216.767 529.288 215.967 529.928C215.199 530.568 214.815 531.448 214.815 532.568C214.815 533.304 214.959 533.944 215.247 534.488C215.567 535 215.983 535.432 216.495 535.784C217.007 536.104 217.567 536.344 218.175 536.504C218.815 536.632 219.455 536.696 220.095 536.696C221.247 536.696 222.239 536.504 223.071 536.12C223.935 535.736 224.655 535.224 225.231 534.584C225.807 533.912 226.223 533.144 226.479 532.28C226.767 531.384 226.911 530.44 226.911 529.448V527.816H225.279ZM226.911 525.224V524.648C226.911 520.776 224.991 518.84 221.151 518.84C218.527 518.84 216.239 519.72 214.287 521.48L212.367 519.224C214.479 517.048 217.647 515.96 221.871 515.96C222.959 515.96 223.999 516.12 224.991 516.44C226.015 516.76 226.895 517.256 227.631 517.928C228.367 518.568 228.959 519.384 229.407 520.376C229.855 521.368 230.079 522.552 230.079 523.928V533.96C230.079 534.824 230.111 535.736 230.175 536.696C230.271 537.624 230.367 538.392 230.463 539H227.391C227.295 538.456 227.215 537.864 227.151 537.224C227.119 536.584 227.103 535.96 227.103 535.352H227.007C226.079 536.856 224.975 537.944 223.695 538.616C222.447 539.256 220.911 539.576 219.087 539.576C218.095 539.576 217.135 539.432 216.207 539.144C215.279 538.888 214.447 538.488 213.711 537.944C213.007 537.368 212.431 536.68 211.983 535.88C211.567 535.048 211.359 534.088 211.359 533C211.359 531.176 211.823 529.752 212.751 528.728C213.711 527.672 214.895 526.888 216.303 526.376C217.743 525.864 219.263 525.544 220.863 525.416C222.495 525.288 223.983 525.224 225.327 525.224H226.911ZM250.425 516.536C250.489 517.144 250.521 517.752 250.521 518.36C250.553 518.936 250.569 519.528 250.569 520.136H250.665C251.017 519.528 251.465 518.968 252.009 518.456C252.553 517.944 253.161 517.512 253.833 517.16C254.505 516.776 255.209 516.488 255.945 516.296C256.713 516.072 257.465 515.96 258.201 515.96C261.081 515.96 263.209 516.728 264.585 518.264C265.961 519.768 266.649 521.928 266.649 524.744V539H263.481V526.568C263.481 524.072 263.049 522.168 262.185 520.856C261.321 519.512 259.721 518.84 257.385 518.84C257.225 518.84 256.777 518.904 256.041 519.032C255.305 519.16 254.521 519.512 253.689 520.088C252.889 520.664 252.169 521.528 251.529 522.68C250.889 523.832 250.569 525.432 250.569 527.48V539H247.401V521.48C247.401 520.872 247.369 520.104 247.305 519.176C247.273 518.248 247.225 517.368 247.161 516.536H250.425Z" fill="white"/>
<path d="M93.917 425.544C93.917 424.552 93.885 423.544 93.821 422.52C93.789 421.496 93.757 420.168 93.725 418.536H96.845V422.712H96.941C97.165 422.104 97.485 421.528 97.901 420.984C98.317 420.408 98.813 419.896 99.389 419.448C99.997 419 100.685 418.648 101.453 418.392C102.253 418.104 103.149 417.96 104.141 417.96C105.037 417.96 105.821 418.056 106.493 418.248L105.869 421.368C105.453 421.208 104.845 421.128 104.045 421.128C102.829 421.128 101.789 421.368 100.925 421.848C100.061 422.296 99.341 422.888 98.765 423.624C98.189 424.328 97.757 425.096 97.469 425.928C97.213 426.76 97.085 427.56 97.085 428.328V441H93.917V425.544ZM136.147 428.04C136.147 425.896 135.507 424.168 134.227 422.856C132.947 421.512 131.155 420.84 128.851 420.84C127.827 420.84 126.835 421.048 125.875 421.464C124.915 421.848 124.067 422.376 123.331 423.048C122.627 423.72 122.051 424.488 121.603 425.352C121.187 426.216 120.979 427.112 120.979 428.04H136.147ZM120.883 430.632C120.979 431.752 121.251 432.808 121.699 433.8C122.147 434.792 122.739 435.656 123.475 436.392C124.211 437.096 125.059 437.656 126.019 438.072C126.979 438.488 128.019 438.696 129.139 438.696C130.835 438.696 132.291 438.312 133.507 437.544C134.755 436.744 135.699 435.832 136.339 434.808L138.787 436.824C137.443 438.52 135.955 439.736 134.323 440.472C132.723 441.208 130.995 441.576 129.139 441.576C127.475 441.576 125.923 441.288 124.483 440.712C123.075 440.104 121.859 439.272 120.835 438.216C119.811 437.16 118.995 435.912 118.387 434.472C117.811 433.032 117.523 431.464 117.523 429.768C117.523 428.072 117.811 426.504 118.387 425.064C118.963 423.624 119.763 422.376 120.787 421.32C121.811 420.264 123.011 419.448 124.387 418.872C125.763 418.264 127.251 417.96 128.851 417.96C130.547 417.96 132.067 418.264 133.411 418.872C134.755 419.48 135.875 420.296 136.771 421.32C137.699 422.312 138.403 423.496 138.883 424.872C139.363 426.216 139.603 427.656 139.603 429.192V430.632H120.883ZM168.115 429.816C167.315 429.816 166.307 429.864 165.091 429.96C163.907 430.024 162.755 430.216 161.635 430.536C160.547 430.824 159.603 431.288 158.803 431.928C158.035 432.568 157.651 433.448 157.651 434.568C157.651 435.304 157.795 435.944 158.083 436.488C158.403 437 158.819 437.432 159.331 437.784C159.843 438.104 160.403 438.344 161.011 438.504C161.651 438.632 162.291 438.696 162.931 438.696C164.083 438.696 165.075 438.504 165.907 438.12C166.771 437.736 167.491 437.224 168.067 436.584C168.643 435.912 169.059 435.144 169.315 434.28C169.603 433.384 169.747 432.44 169.747 431.448V429.816H168.115ZM169.747 427.224V426.648C169.747 422.776 167.827 420.84 163.987 420.84C161.363 420.84 159.075 421.72 157.123 423.48L155.203 421.224C157.315 419.048 160.483 417.96 164.707 417.96C165.795 417.96 166.835 418.12 167.827 418.44C168.851 418.76 169.731 419.256 170.467 419.928C171.203 420.568 171.795 421.384 172.243 422.376C172.691 423.368 172.915 424.552 172.915 425.928V435.96C172.915 436.824 172.947 437.736 173.011 438.696C173.107 439.624 173.203 440.392 173.299 441H170.227C170.131 440.456 170.051 439.864 169.987 439.224C169.955 438.584 169.939 437.96 169.939 437.352H169.843C168.915 438.856 167.811 439.944 166.531 440.616C165.283 441.256 163.747 441.576 161.923 441.576C160.931 441.576 159.971 441.432 159.043 441.144C158.115 440.888 157.283 440.488 156.547 439.944C155.843 439.368 155.267 438.68 154.819 437.88C154.403 437.048 154.195 436.088 154.195 435C154.195 433.176 154.659 431.752 155.587 430.728C156.547 429.672 157.731 428.888 159.139 428.376C160.579 427.864 162.099 427.544 163.699 427.416C165.331 427.288 166.819 427.224 168.163 427.224H169.747ZM206.605 423.816C206.061 422.984 205.293 422.28 204.301 421.704C203.341 421.128 202.237 420.84 200.989 420.84C199.677 420.808 198.493 421.016 197.437 421.464C196.413 421.912 195.533 422.536 194.797 423.336C194.061 424.136 193.501 425.096 193.117 426.216C192.733 427.304 192.541 428.488 192.541 429.768C192.541 431.048 192.733 432.248 193.117 433.368C193.501 434.456 194.061 435.4 194.797 436.2C195.533 437 196.413 437.624 197.437 438.072C198.493 438.52 199.677 438.728 200.989 438.696C202.237 438.696 203.341 438.408 204.301 437.832C205.293 437.256 206.061 436.552 206.605 435.72L209.197 437.688C208.077 439 206.813 439.976 205.405 440.616C203.997 441.224 202.525 441.544 200.989 441.576C199.165 441.608 197.517 441.336 196.045 440.76C194.573 440.152 193.309 439.32 192.253 438.264C191.229 437.208 190.445 435.96 189.901 434.52C189.357 433.048 189.085 431.464 189.085 429.768C189.085 428.072 189.357 426.504 189.901 425.064C190.445 423.592 191.229 422.328 192.253 421.272C193.309 420.216 194.573 419.4 196.045 418.824C197.517 418.216 199.165 417.928 200.989 417.96C202.525 417.992 203.997 418.328 205.405 418.968C206.813 419.576 208.077 420.536 209.197 421.848L206.605 423.816ZM235.01 421.416H228.53V434.664C228.53 435.496 228.61 436.184 228.77 436.728C228.93 437.24 229.154 437.64 229.442 437.928C229.73 438.216 230.066 438.424 230.45 438.552C230.866 438.648 231.314 438.696 231.794 438.696C232.338 438.696 232.898 438.616 233.474 438.456C234.05 438.296 234.578 438.088 235.058 437.832L235.202 440.76C234.018 441.304 232.594 441.576 230.93 441.576C230.322 441.576 229.682 441.496 229.01 441.336C228.37 441.176 227.778 440.872 227.234 440.424C226.69 439.976 226.242 439.368 225.89 438.6C225.538 437.832 225.362 436.824 225.362 435.576V421.416H220.61V418.536H225.362V412.2H228.53V418.536H235.01V421.416Z" fill="white"/>
<path d="M96.4981 171.416H91.1701V191H88.0021V171.416H83.2501V168.536H88.0021V162.392C88.0021 159.416 88.6901 157.304 90.0661 156.056C91.4421 154.776 93.2661 154.136 95.5381 154.136C95.9861 154.136 96.4341 154.168 96.8821 154.232C97.3621 154.296 97.8261 154.376 98.2741 154.472L97.6981 157.352C97.3141 157.256 96.9141 157.176 96.4981 157.112C96.0821 157.048 95.6661 157.016 95.2501 157.016C94.3861 157.016 93.6821 157.16 93.1381 157.448C92.5941 157.736 92.1781 158.152 91.8901 158.696C91.6021 159.208 91.4101 159.816 91.3141 160.52C91.2181 161.224 91.1701 161.976 91.1701 162.776V168.536H96.4981V171.416ZM114.845 159.896C114.845 160.568 114.605 161.128 114.125 161.576C113.645 161.992 113.117 162.2 112.541 162.2C111.965 162.2 111.437 161.992 110.957 161.576C110.477 161.128 110.237 160.568 110.237 159.896C110.237 159.224 110.477 158.68 110.957 158.264C111.437 157.816 111.965 157.592 112.541 157.592C113.117 157.592 113.645 157.816 114.125 158.264C114.605 158.68 114.845 159.224 114.845 159.896ZM114.125 191H110.957V168.536H114.125V191ZM134.073 179.48C134.073 180.664 134.281 181.784 134.697 182.84C135.145 183.864 135.737 184.776 136.473 185.576C137.241 186.344 138.121 186.968 139.113 187.448C140.137 187.896 141.241 188.12 142.425 188.12C143.577 188.12 144.665 187.912 145.689 187.496C146.745 187.08 147.673 186.504 148.473 185.768C149.273 185 149.881 184.088 150.297 183.032C150.745 181.976 150.953 180.792 150.921 179.48C150.921 178.296 150.729 177.192 150.345 176.168C149.961 175.112 149.401 174.2 148.665 173.432C147.929 172.632 147.033 172.008 145.977 171.56C144.921 171.08 143.737 170.84 142.425 170.84C141.241 170.84 140.137 171.08 139.113 171.56C138.121 172.008 137.241 172.632 136.473 173.432C135.737 174.2 135.145 175.112 134.697 176.168C134.281 177.192 134.073 178.296 134.073 179.48ZM133.497 195.512C134.425 196.76 135.625 197.752 137.097 198.488C138.601 199.256 140.265 199.64 142.089 199.64C143.689 199.64 145.049 199.4 146.169 198.92C147.289 198.472 148.185 197.848 148.857 197.048C149.561 196.248 150.057 195.304 150.345 194.216C150.665 193.16 150.825 192.024 150.825 190.808V186.776H150.729C149.705 188.312 148.457 189.4 146.985 190.04C145.513 190.68 143.961 191 142.329 191C140.697 191 139.161 190.712 137.721 190.136C136.313 189.56 135.081 188.776 134.025 187.784C132.969 186.76 132.137 185.544 131.529 184.136C130.921 182.728 130.617 181.208 130.617 179.576C130.617 177.944 130.905 176.424 131.481 175.016C132.057 173.608 132.841 172.376 133.833 171.32C134.857 170.264 136.057 169.448 137.433 168.872C138.841 168.264 140.377 167.96 142.041 167.96C142.713 167.96 143.417 168.024 144.153 168.152C144.921 168.28 145.673 168.504 146.409 168.824C147.177 169.144 147.929 169.592 148.665 170.168C149.401 170.712 150.089 171.416 150.729 172.28H150.825V168.536H153.993V190.808C153.993 192.024 153.833 193.32 153.513 194.696C153.225 196.072 152.633 197.336 151.737 198.488C150.873 199.64 149.657 200.6 148.089 201.368C146.521 202.136 144.473 202.52 141.945 202.52C139.705 202.52 137.705 202.152 135.945 201.416C134.185 200.68 132.585 199.544 131.145 198.008L133.497 195.512ZM171.112 173.528C171.112 172.696 171.08 171.864 171.016 171.032C170.984 170.2 170.936 169.368 170.872 168.536H174.28V171.944H174.376C175.144 170.632 176.2 169.64 177.544 168.968C178.92 168.296 180.28 167.96 181.624 167.96C182.232 167.96 182.872 168.024 183.544 168.152C184.248 168.28 184.92 168.52 185.56 168.872C186.2 169.192 186.792 169.656 187.336 170.264C187.912 170.872 188.392 171.656 188.776 172.616C189.416 171.176 190.424 170.04 191.8 169.208C193.208 168.376 194.664 167.96 196.168 167.96C199.048 167.96 201.176 168.728 202.552 170.264C203.928 171.768 204.616 173.928 204.616 176.744V191H201.448V177.896C201.448 175.624 201.048 173.88 200.248 172.664C199.448 171.448 197.96 170.84 195.784 170.84C194.6 170.84 193.608 171.08 192.808 171.56C192.008 172.008 191.352 172.616 190.84 173.384C190.36 174.152 190.008 175.032 189.784 176.024C189.56 176.984 189.448 177.992 189.448 179.048V191H186.28V177.896C186.28 175.624 185.88 173.88 185.08 172.664C184.28 171.448 182.792 170.84 180.616 170.84C180.424 170.84 179.976 170.904 179.272 171.032C178.6 171.16 177.896 171.512 177.16 172.088C176.424 172.664 175.752 173.528 175.144 174.68C174.568 175.832 174.28 177.432 174.28 179.48V191H171.112V173.528ZM234.755 179.816C233.955 179.816 232.947 179.864 231.731 179.96C230.547 180.024 229.395 180.216 228.275 180.536C227.187 180.824 226.243 181.288 225.443 181.928C224.675 182.568 224.291 183.448 224.291 184.568C224.291 185.304 224.435 185.944 224.723 186.488C225.043 187 225.459 187.432 225.971 187.784C226.483 188.104 227.043 188.344 227.651 188.504C228.291 188.632 228.931 188.696 229.571 188.696C230.723 188.696 231.715 188.504 232.547 188.12C233.411 187.736 234.131 187.224 234.707 186.584C235.283 185.912 235.699 185.144 235.955 184.28C236.243 183.384 236.387 182.44 236.387 181.448V179.816H234.755ZM236.387 177.224V176.648C236.387 172.776 234.467 170.84 230.627 170.84C228.003 170.84 225.715 171.72 223.763 173.48L221.843 171.224C223.955 169.048 227.123 167.96 231.347 167.96C232.435 167.96 233.475 168.12 234.467 168.44C235.491 168.76 236.371 169.256 237.107 169.928C237.843 170.568 238.435 171.384 238.883 172.376C239.331 173.368 239.555 174.552 239.555 175.928V185.96C239.555 186.824 239.587 187.736 239.651 188.696C239.747 189.624 239.843 190.392 239.939 191H236.867C236.771 190.456 236.691 189.864 236.627 189.224C236.595 188.584 236.579 187.96 236.579 187.352H236.483C235.555 188.856 234.451 189.944 233.171 190.616C231.923 191.256 230.387 191.576 228.563 191.576C227.571 191.576 226.611 191.432 225.683 191.144C224.755 190.888 223.923 190.488 223.187 189.944C222.483 189.368 221.907 188.68 221.459 187.88C221.043 187.048 220.835 186.088 220.835 185C220.835 183.176 221.299 181.752 222.227 180.728C223.187 179.672 224.371 178.888 225.779 178.376C227.219 177.864 228.739 177.544 230.339 177.416C231.971 177.288 233.459 177.224 234.803 177.224H236.387Z" fill="#5689A6"/>
<path d="M114.83 358.896C114.83 359.568 114.59 360.128 114.11 360.576C113.63 360.992 113.102 361.2 112.526 361.2C111.95 361.2 111.422 360.992 110.942 360.576C110.462 360.128 110.222 359.568 110.222 358.896C110.222 358.224 110.462 357.68 110.942 357.264C111.422 356.816 111.95 356.592 112.526 356.592C113.102 356.592 113.63 356.816 114.11 357.264C114.59 357.68 114.83 358.224 114.83 358.896ZM105.71 398.304L105.854 398.352C106.11 398.416 106.398 398.48 106.718 398.544C107.006 398.608 107.278 398.64 107.534 398.64C108.302 398.64 108.91 398.496 109.358 398.208C109.838 397.92 110.19 397.536 110.414 397.056C110.638 396.608 110.782 396.112 110.846 395.568C110.91 395.024 110.942 394.48 110.942 393.936V367.536H114.11V394.464C114.11 394.784 114.094 395.328 114.062 396.096C114.03 396.896 113.822 397.696 113.438 398.496C113.086 399.296 112.462 400 111.566 400.608C110.702 401.216 109.438 401.52 107.774 401.52C106.878 401.52 106.046 401.36 105.278 401.04L105.71 398.304ZM144.521 378.816C143.721 378.816 142.713 378.864 141.497 378.96C140.313 379.024 139.161 379.216 138.041 379.536C136.953 379.824 136.009 380.288 135.209 380.928C134.441 381.568 134.057 382.448 134.057 383.568C134.057 384.304 134.201 384.944 134.489 385.488C134.809 386 135.225 386.432 135.737 386.784C136.249 387.104 136.809 387.344 137.417 387.504C138.057 387.632 138.697 387.696 139.337 387.696C140.489 387.696 141.481 387.504 142.313 387.12C143.177 386.736 143.897 386.224 144.473 385.584C145.049 384.912 145.465 384.144 145.721 383.28C146.009 382.384 146.153 381.44 146.153 380.448V378.816H144.521ZM146.153 376.224V375.648C146.153 371.776 144.233 369.84 140.393 369.84C137.769 369.84 135.481 370.72 133.529 372.48L131.609 370.224C133.721 368.048 136.889 366.96 141.113 366.96C142.201 366.96 143.241 367.12 144.233 367.44C145.257 367.76 146.137 368.256 146.873 368.928C147.609 369.568 148.201 370.384 148.649 371.376C149.097 372.368 149.321 373.552 149.321 374.928V384.96C149.321 385.824 149.353 386.736 149.417 387.696C149.513 388.624 149.609 389.392 149.705 390H146.633C146.537 389.456 146.457 388.864 146.393 388.224C146.361 387.584 146.345 386.96 146.345 386.352H146.249C145.321 387.856 144.217 388.944 142.937 389.616C141.689 390.256 140.153 390.576 138.329 390.576C137.337 390.576 136.377 390.432 135.449 390.144C134.521 389.888 133.689 389.488 132.953 388.944C132.249 388.368 131.673 387.68 131.225 386.88C130.809 386.048 130.601 385.088 130.601 384C130.601 382.176 131.065 380.752 131.993 379.728C132.953 378.672 134.137 377.888 135.545 377.376C136.985 376.864 138.505 376.544 140.105 376.416C141.737 376.288 143.225 376.224 144.569 376.224H146.153ZM176.532 390H172.98L163.86 367.536H167.652L174.804 386.448H174.9L182.052 367.536H185.652L176.532 390ZM212.568 378.816C211.768 378.816 210.76 378.864 209.544 378.96C208.36 379.024 207.208 379.216 206.088 379.536C205 379.824 204.056 380.288 203.256 380.928C202.488 381.568 202.104 382.448 202.104 383.568C202.104 384.304 202.248 384.944 202.536 385.488C202.856 386 203.272 386.432 203.784 386.784C204.296 387.104 204.856 387.344 205.464 387.504C206.104 387.632 206.744 387.696 207.384 387.696C208.536 387.696 209.528 387.504 210.36 387.12C211.224 386.736 211.944 386.224 212.52 385.584C213.096 384.912 213.512 384.144 213.768 383.28C214.056 382.384 214.2 381.44 214.2 380.448V378.816H212.568ZM214.2 376.224V375.648C214.2 371.776 212.28 369.84 208.44 369.84C205.816 369.84 203.528 370.72 201.576 372.48L199.656 370.224C201.768 368.048 204.936 366.96 209.16 366.96C210.248 366.96 211.288 367.12 212.28 367.44C213.304 367.76 214.184 368.256 214.92 368.928C215.656 369.568 216.248 370.384 216.696 371.376C217.144 372.368 217.368 373.552 217.368 374.928V384.96C217.368 385.824 217.4 386.736 217.464 387.696C217.56 388.624 217.656 389.392 217.752 390H214.68C214.584 389.456 214.504 388.864 214.44 388.224C214.408 387.584 214.392 386.96 214.392 386.352H214.296C213.368 387.856 212.264 388.944 210.984 389.616C209.736 390.256 208.2 390.576 206.376 390.576C205.384 390.576 204.424 390.432 203.496 390.144C202.568 389.888 201.736 389.488 201 388.944C200.296 388.368 199.72 387.68 199.272 386.88C198.856 386.048 198.648 385.088 198.648 384C198.648 382.176 199.112 380.752 200.04 379.728C201 378.672 202.184 377.888 203.592 377.376C205.032 376.864 206.552 376.544 208.152 376.416C209.784 376.288 211.272 376.224 212.616 376.224H214.2Z" fill="#5689A6"/>
<path d="M108.237 225.544C108.237 224.552 108.205 223.544 108.141 222.52C108.109 221.496 108.077 220.168 108.045 218.536H111.165V222.712H111.261C111.485 222.104 111.805 221.528 112.221 220.984C112.637 220.408 113.133 219.896 113.709 219.448C114.317 219 115.005 218.648 115.773 218.392C116.573 218.104 117.469 217.96 118.461 217.96C119.357 217.96 120.141 218.056 120.813 218.248L120.189 221.368C119.773 221.208 119.165 221.128 118.365 221.128C117.149 221.128 116.109 221.368 115.245 221.848C114.381 222.296 113.661 222.888 113.085 223.624C112.509 224.328 112.077 225.096 111.789 225.928C111.533 226.76 111.405 227.56 111.405 228.328V241H108.237V225.544ZM148.063 241C147.999 240.392 147.951 239.8 147.919 239.224C147.919 238.616 147.919 238.008 147.919 237.4H147.823C147.471 238.008 147.023 238.568 146.479 239.08C145.935 239.592 145.327 240.04 144.655 240.424C143.983 240.776 143.263 241.048 142.495 241.24C141.759 241.464 141.023 241.576 140.287 241.576C137.407 241.576 135.279 240.824 133.903 239.32C132.527 237.784 131.839 235.608 131.839 232.792V218.536H135.007V230.968C135.007 232.216 135.103 233.32 135.295 234.28C135.487 235.24 135.807 236.056 136.255 236.728C136.735 237.368 137.359 237.864 138.127 238.216C138.927 238.536 139.919 238.696 141.103 238.696C141.263 238.696 141.711 238.632 142.447 238.504C143.183 238.376 143.951 238.024 144.751 237.448C145.583 236.872 146.319 236.008 146.959 234.856C147.599 233.704 147.919 232.104 147.919 230.056V218.536H151.087V236.056C151.087 236.664 151.103 237.432 151.135 238.36C151.199 239.288 151.263 240.168 151.327 241H148.063ZM187.007 229.768C187.007 228.52 186.799 227.352 186.383 226.264C185.999 225.176 185.439 224.232 184.703 223.432C183.967 222.632 183.071 222.008 182.015 221.56C180.991 221.08 179.823 220.84 178.511 220.84C177.199 220.84 175.999 221.08 174.911 221.56C173.823 222.008 172.879 222.632 172.079 223.432C171.279 224.232 170.655 225.176 170.207 226.264C169.759 227.352 169.535 228.52 169.535 229.768C169.535 231.016 169.759 232.184 170.207 233.272C170.655 234.36 171.279 235.304 172.079 236.104C172.879 236.904 173.823 237.544 174.911 238.024C175.999 238.472 177.199 238.696 178.511 238.696C179.823 238.696 180.991 238.472 182.015 238.024C183.071 237.544 183.967 236.904 184.703 236.104C185.439 235.304 185.999 234.36 186.383 233.272C186.799 232.184 187.007 231.016 187.007 229.768ZM166.511 204.712H169.679V222.28H169.775C170.287 221.512 170.895 220.856 171.599 220.312C172.303 219.768 173.039 219.32 173.807 218.968C174.575 218.616 175.359 218.36 176.159 218.2C176.991 218.04 177.775 217.96 178.511 217.96C180.271 217.96 181.871 218.264 183.311 218.872C184.783 219.448 186.047 220.264 187.103 221.32C188.159 222.376 188.975 223.624 189.551 225.064C190.159 226.504 190.463 228.072 190.463 229.768C190.463 231.464 190.159 233.032 189.551 234.472C188.975 235.912 188.159 237.16 187.103 238.216C186.047 239.272 184.783 240.104 183.311 240.712C181.871 241.288 180.271 241.576 178.511 241.576C177.775 241.576 176.991 241.496 176.159 241.336C175.359 241.176 174.575 240.92 173.807 240.568C173.039 240.216 172.303 239.768 171.599 239.224C170.895 238.68 170.287 238.024 169.775 237.256H169.679V241H166.511V204.712ZM212.206 237.112L219.07 218.536H222.91L211.678 246.856C211.006 248.584 210.142 249.96 209.086 250.984C208.062 252.008 206.574 252.52 204.622 252.52C204.142 252.52 203.646 252.504 203.134 252.472C202.654 252.44 202.174 252.344 201.694 252.184L202.03 249.112C202.702 249.464 203.502 249.64 204.43 249.64C205.55 249.64 206.43 249.288 207.07 248.584C207.71 247.88 208.27 246.888 208.75 245.608L210.382 241.288L201.166 218.536H205.15L212.206 237.112Z" fill="white"/>
<path d="M115.366 304.468H118.468V321.529H118.562C118.907 320.934 119.345 320.385 119.878 319.884C120.411 319.383 121.006 318.96 121.664 318.615C122.322 318.239 123.011 317.957 123.732 317.769C124.484 317.55 125.22 317.44 125.941 317.44C128.761 317.44 130.845 318.192 132.192 319.696C133.539 321.169 134.213 323.284 134.213 326.041V340H131.111V327.827C131.111 325.383 130.688 323.519 129.842 322.234C128.996 320.918 127.429 320.26 125.142 320.26C124.985 320.26 124.547 320.323 123.826 320.448C123.105 320.573 122.338 320.918 121.523 321.482C120.74 322.046 120.035 322.892 119.408 324.02C118.781 325.148 118.468 326.715 118.468 328.72V340H115.366V304.468ZM158.356 320.824H152.011V333.796C152.011 334.611 152.089 335.284 152.246 335.817C152.403 336.318 152.622 336.71 152.904 336.992C153.186 337.274 153.515 337.478 153.891 337.603C154.298 337.697 154.737 337.744 155.207 337.744C155.74 337.744 156.288 337.666 156.852 337.509C157.416 337.352 157.933 337.149 158.403 336.898L158.544 339.765C157.385 340.298 155.99 340.564 154.361 340.564C153.766 340.564 153.139 340.486 152.481 340.329C151.854 340.172 151.275 339.875 150.742 339.436C150.209 338.997 149.771 338.402 149.426 337.65C149.081 336.898 148.909 335.911 148.909 334.689V320.824H144.256V318.004H148.909V311.8H152.011V318.004H158.356V320.824ZM168.088 322.892C168.088 322.077 168.056 321.263 167.994 320.448C167.962 319.633 167.915 318.819 167.853 318.004H171.19V321.341H171.284C172.036 320.056 173.07 319.085 174.386 318.427C175.733 317.769 177.065 317.44 178.381 317.44C178.976 317.44 179.603 317.503 180.261 317.628C180.95 317.753 181.608 317.988 182.235 318.333C182.861 318.646 183.441 319.101 183.974 319.696C184.538 320.291 185.008 321.059 185.384 321.999C186.01 320.589 186.997 319.477 188.345 318.662C189.723 317.847 191.149 317.44 192.622 317.44C195.442 317.44 197.525 318.192 198.873 319.696C200.22 321.169 200.894 323.284 200.894 326.041V340H197.792V327.169C197.792 324.944 197.4 323.237 196.617 322.046C195.833 320.855 194.376 320.26 192.246 320.26C191.086 320.26 190.115 320.495 189.332 320.965C188.548 321.404 187.906 321.999 187.405 322.751C186.935 323.503 186.59 324.365 186.371 325.336C186.151 326.276 186.042 327.263 186.042 328.297V340H182.94V327.169C182.94 324.944 182.548 323.237 181.765 322.046C180.981 320.855 179.524 320.26 177.394 320.26C177.206 320.26 176.767 320.323 176.078 320.448C175.42 320.573 174.73 320.918 174.01 321.482C173.289 322.046 172.631 322.892 172.036 324.02C171.472 325.148 171.19 326.715 171.19 328.72V340H168.088V322.892ZM213.918 340H210.816V304.468H213.918V340Z" fill="white"/>
<path d="M141.808 273.816C141.264 272.984 140.496 272.28 139.504 271.704C138.544 271.128 137.44 270.84 136.192 270.84C134.88 270.808 133.696 271.016 132.64 271.464C131.616 271.912 130.736 272.536 130 273.336C129.264 274.136 128.704 275.096 128.32 276.216C127.936 277.304 127.744 278.488 127.744 279.768C127.744 281.048 127.936 282.248 128.32 283.368C128.704 284.456 129.264 285.4 130 286.2C130.736 287 131.616 287.624 132.64 288.072C133.696 288.52 134.88 288.728 136.192 288.696C137.44 288.696 138.544 288.408 139.504 287.832C140.496 287.256 141.264 286.552 141.808 285.72L144.4 287.688C143.28 289 142.016 289.976 140.608 290.616C139.2 291.224 137.728 291.544 136.192 291.576C134.368 291.608 132.72 291.336 131.248 290.76C129.776 290.152 128.512 289.32 127.456 288.264C126.432 287.208 125.648 285.96 125.104 284.52C124.56 283.048 124.288 281.464 124.288 279.768C124.288 278.072 124.56 276.504 125.104 275.064C125.648 273.592 126.432 272.328 127.456 271.272C128.512 270.216 129.776 269.4 131.248 268.824C132.72 268.216 134.368 267.928 136.192 267.96C137.728 267.992 139.2 268.328 140.608 268.968C142.016 269.576 143.28 270.536 144.4 271.848L141.808 273.816ZM170.501 273.864C170.021 272.936 169.381 272.2 168.581 271.656C167.781 271.112 166.805 270.84 165.653 270.84C165.109 270.84 164.549 270.904 163.973 271.032C163.429 271.16 162.933 271.368 162.485 271.656C162.037 271.912 161.669 272.248 161.381 272.664C161.125 273.08 160.997 273.592 160.997 274.2C160.997 275.256 161.365 276.024 162.101 276.504C162.837 276.984 163.941 277.4 165.413 277.752L168.629 278.52C170.197 278.872 171.493 279.592 172.517 280.68C173.573 281.736 174.101 283.064 174.101 284.664C174.101 285.88 173.845 286.936 173.333 287.832C172.853 288.696 172.197 289.416 171.365 289.992C170.565 290.536 169.637 290.936 168.581 291.192C167.525 291.448 166.453 291.576 165.365 291.576C163.637 291.576 162.021 291.256 160.517 290.616C159.045 289.944 157.781 288.808 156.725 287.208L159.461 285.336C160.101 286.36 160.901 287.176 161.861 287.784C162.853 288.392 164.021 288.696 165.365 288.696C166.005 288.696 166.645 288.632 167.285 288.504C167.925 288.344 168.485 288.12 168.965 287.832C169.477 287.512 169.877 287.112 170.165 286.632C170.485 286.152 170.645 285.592 170.645 284.952C170.645 283.832 170.229 283.032 169.397 282.552C168.565 282.04 167.557 281.64 166.373 281.352L163.301 280.632C162.917 280.536 162.389 280.376 161.717 280.152C161.077 279.928 160.437 279.592 159.797 279.144C159.189 278.696 158.661 278.12 158.213 277.416C157.765 276.68 157.541 275.784 157.541 274.728C157.541 273.576 157.765 272.568 158.213 271.704C158.693 270.84 159.317 270.136 160.085 269.592C160.885 269.048 161.781 268.648 162.773 268.392C163.765 268.104 164.789 267.96 165.845 267.96C167.413 267.96 168.869 268.264 170.213 268.872C171.557 269.48 172.597 270.52 173.333 271.992L170.501 273.864ZM200.938 273.864C200.458 272.936 199.818 272.2 199.018 271.656C198.218 271.112 197.242 270.84 196.09 270.84C195.546 270.84 194.986 270.904 194.41 271.032C193.866 271.16 193.37 271.368 192.922 271.656C192.474 271.912 192.106 272.248 191.818 272.664C191.562 273.08 191.434 273.592 191.434 274.2C191.434 275.256 191.802 276.024 192.538 276.504C193.274 276.984 194.378 277.4 195.85 277.752L199.066 278.52C200.634 278.872 201.93 279.592 202.954 280.68C204.01 281.736 204.538 283.064 204.538 284.664C204.538 285.88 204.282 286.936 203.77 287.832C203.29 288.696 202.634 289.416 201.802 289.992C201.002 290.536 200.074 290.936 199.018 291.192C197.962 291.448 196.89 291.576 195.802 291.576C194.074 291.576 192.458 291.256 190.954 290.616C189.482 289.944 188.218 288.808 187.162 287.208L189.898 285.336C190.538 286.36 191.338 287.176 192.298 287.784C193.29 288.392 194.458 288.696 195.802 288.696C196.442 288.696 197.082 288.632 197.722 288.504C198.362 288.344 198.922 288.12 199.402 287.832C199.914 287.512 200.314 287.112 200.602 286.632C200.922 286.152 201.082 285.592 201.082 284.952C201.082 283.832 200.666 283.032 199.834 282.552C199.002 282.04 197.994 281.64 196.81 281.352L193.738 280.632C193.354 280.536 192.826 280.376 192.154 280.152C191.514 279.928 190.874 279.592 190.234 279.144C189.626 278.696 189.098 278.12 188.65 277.416C188.202 276.68 187.978 275.784 187.978 274.728C187.978 273.576 188.202 272.568 188.65 271.704C189.13 270.84 189.754 270.136 190.522 269.592C191.322 269.048 192.218 268.648 193.21 268.392C194.202 268.104 195.226 267.96 196.282 267.96C197.85 267.96 199.306 268.264 200.65 268.872C201.994 269.48 203.034 270.52 203.77 271.992L200.938 273.864Z" fill="#5689A6"/>
</svg>
